<svg id="logo" width="35vw" height="100%" viewBox="0 0 88 88" fill="none" xmlns="http://www.w3.org/2000/svg"><path fill-rule="evenodd" clip-rule="evenodd" d="M54.044 38.7532h9.3549L63.1958 39.5479 60.0715 40.1291 57.624 40.9188 55.7067 41.8719l-1.415 1.0431L53.4175 44.0375 53.0108 45.1154 52.9661 46.1572 53.3436 47.0662 54.044 47.8603 55.0417 48.4024l1.2064.2881L57.7035 48.6507l1.6633-.4178L61.1097 47.3543l1.8725-1.3212L63.9359 45.1545 64.894 44.1611 65.0628 44.9012 65.0181 45.7009 64.5214 47.196l-2.1998 1.3305-2.4183 1.2064L57.2912 50.7263l-2.8306.8339L51.471 52.1407 48.2629 52.3897 44.9014 52.3456 41.3208 51.9327 54.044 38.7532zM21.0755 40.0837 21.9292 39.7621 23.6975 40.6251 25.5248 40.6009 25.7235 40.6109 25.8924 40.6456 26.0358 40.7052 26.1656 40.7841 26.2897 40.8884 26.404 41.0076 26.6623 41.3063l1.0673 1.1908 1.6236 1.6193 1.5348 1.2517L32.3428 46.282l1.4553.6203L35.1684 47.2351 36.5039 47.2798l1.3262-.2136 1.3306-.4514L40.5366 45.9486 41.8622 45.1154 43.2778 44.1164l6.2815-5.2782h2.9449L39.7816 51.8532l-4.484-1.713L33.1716 49.2263 31.0122 48.149l-2.1998-1.4156-2.3737-1.6981-2.5773-2.2048-2.7859-2.7468zm31.076-15.0111L50.9004 25.1465 50.8209 24.9739 50.7613 24.9137 50.6918 24.8597 50.5378 24.7895 50.3342 24.7653 50.1752 24.7945 50.0262 24.8491 49.907 24.9385 49.8077 25.0577 49.7332 25.2067 49.6785 25.3856 49.6493 25.5942 49.6444 25.8369 49.8921 25.6929 50.1504 25.5892 50.423 25.524 50.7166 25.5048 51.0488 25.5445 51.3419 25.6234 51.5952 25.7482 51.715 25.8276 51.8088 25.9114 51.9025 26.0114 51.9876 26.1201 52.1211 26.369 52.221 26.6515 52.2757 26.9843 52.2359 27.3469 52.1962 27.5002 52.1416 27.6592 52.082 27.7939 51.9975 27.9274 51.9025 28.0423 51.7939 28.141 51.6697 28.2409 51.5356 28.3204 51.2227 28.4446 50.8607 28.534 50.4385 28.5682 50.1802 28.5588 49.9318 28.5284 49.6984 28.4787 49.4848 28.4092 49.2961 28.3304 49.1129 28.226 48.9583 28.1012 48.8093 27.9678 48.6857 27.8094 48.5715 27.6399 48.4765 27.4462 48.4026 27.2376 48.348 27.0091 48.3033 26.7608 48.2728 26.4976 48.2629 26.2194 48.2884 25.9419 48.3175 25.6885 48.3629 25.4452 48.4218 25.2216 48.4963 25.0081 48.5858 24.8193 48.6901 24.6455 48.8093 24.4921 48.949 24.3474 49.0924 24.2288 49.2569 24.1196 49.4302 24.0295 49.6239 23.9606 49.8275 23.906 50.051 23.8656 50.2845 23.8464 50.667 23.8706 51.0041 23.9302 51.3021 24.0295 51.5555 24.1643 51.6647 24.2431 51.774 24.3375 51.8578 24.4375 51.9379 24.5467 52.072 24.7895 52.1515 25.0726zm-1.8173 1.3262L50.4677 26.4187 50.572 26.4529 50.6713 26.5075 50.7508 26.5727 50.8209 26.6615 50.8657 26.7608 50.9048 26.8701 50.9253 27.0091 50.9104 27.1532 50.875 27.2873 50.8309 27.4015 50.7564 27.4866 50.6713 27.5605 50.567 27.6095 50.4484 27.6399 50.3087 27.6499 50.1802 27.63 50.061 27.5903 49.9616 27.5406 49.8822 27.4661 49.8077 27.3872 49.753 27.2829 49.7183 27.1631 49.6984 27.0339 49.7083 26.885 49.7381 26.7658 49.7878 26.6571 49.8623 26.5621 49.9467 26.4976 50.056 26.4429 50.1895 26.4131 50.3342 26.3988zM45.6067 25.1465v1.3958H44.5096l1.0971-1.3958zm-2.1451 2.3997V26.4733l2.17-2.553h1.256v2.622H47.4731v1.0039H46.8876V28.5185H45.6067V27.5462H43.4616zM38.808 27.3916 40.0647 27.3177 40.1442 27.476 40.2038 27.5462 40.2733 27.5958 40.4273 27.6592 40.626 27.6747 40.7893 27.6592 40.9333 27.6095 41.0476 27.5207 41.1519 27.4114 41.232 27.2674 41.2866 27.0836 41.3264 26.8651 41.3413 26.6273 41.083 26.7807 40.8098 26.885 40.5366 26.9445 40.2485 26.9601 39.9101 26.9247 39.6127 26.8403 39.3544 26.7267 39.2408 26.6515 39.1365 26.5572 39.0471 26.4634 38.962 26.3591 38.8285 26.1101 38.7385 25.8177 38.6888 25.4799 38.6988 25.2868 38.7242 25.1124 38.7584 24.9484 38.808 24.7945 38.8782 24.651 38.9571 24.5213 39.0564 24.3921 39.1607 24.2928 39.2898 24.1935 39.424 24.1047 39.5786 24.0345 39.7419 23.9749 40.1187 23.8861 40.5558 23.8464 40.8048 23.8557 41.0476 23.8861 41.2711 23.9352 41.4847 24.0053 41.6691 24.0842 41.8473 24.1935 42.0013 24.3176 42.1503 24.4567 42.2695 24.6157 42.3781 24.7945 42.4781 24.9882 42.5526 25.2067 42.6122 25.4402 42.6569 25.6885 42.6818 25.9568 42.701 26.2449 42.6768 26.5174 42.647 26.7757 42.6023 27.019 42.5371 27.2426 42.4682 27.4462 42.3738 27.635 42.2695 27.8038 42.1552 27.9628 42.0162 28.0919 41.8721 28.2161 41.7082 28.3204 41.5344 28.3999 41.3413 28.4738 41.1326 28.5235 40.9191 28.5539 40.6757 28.5682 40.2932 28.5439 39.9505 28.4837 39.6524 28.385 39.3942 28.2608 39.2849 28.1863 39.1806 28.0919 39.0912 28.0025 39.0167 27.8982 38.8875 27.6648 38.808 27.3916zm1.818-1.3212L40.4962 26.0505 40.387 26.0213 40.2975 25.9661 40.2237 25.9015 40.1541 25.8177 40.11 25.7134 40.074 25.5892 40.0647 25.4557 40.0691 25.3055 40.0995 25.1825 40.1442 25.0782 40.2088 24.9832 40.2975 24.9186 40.3919 24.864 40.5118 24.8292 40.6508 24.8143 40.7849 24.8441 40.9042 24.8789 40.9979 24.9335 41.0873 24.9981 41.1575 25.0832 41.2419 25.2812 41.2661 25.4054 41.2463 25.5544 41.222 25.683 41.1668 25.7972 41.0923 25.8872 41.0035 25.9568 40.8992 26.0158 40.7694 26.0505 40.626 26.0704zM36.8218 23.8464v4.6721h-1.361V25.8369H34.3935V24.8938L34.6816 24.8839 34.9294 24.8342 35.1479 24.7554 35.3472 24.6411 35.4267 24.571 35.5012 24.4971 35.6353 24.3133 35.7291 24.0891 35.7936 23.8464H36.8218zM56.2034 51.9731 57.6637 51.5205 57.6432 52.1867 57.5886 52.8411 57.5048 53.4868 57.3856 54.122 57.2366 54.7484 57.0578 55.3637 56.8442 55.9654 56.6014 56.5509 56.3332 57.1221 56.0345 57.6834 55.7117 58.2198 55.3646 58.7507 54.9921 59.248 54.5891 59.7292 54.1675 60.206 53.7255 60.6524 53.2635 61.0846 52.7718 61.4925 52.2657 61.8744 51.7442 62.232 51.1984 62.5697 50.6365 62.8827 50.056 63.1658 49.4649 63.4291 48.854 63.6619 48.2337 63.8655 47.5979 64.0394 46.9522 64.1878 46.2916 64.3026 45.6216 64.3821 44.9505 64.4268 44.2607 64.4473 43.5702 64.4268 42.8904 64.3821 42.2198 64.3026 41.5598 64.1878 40.9191 64.0394 40.2826 63.8655 39.6624 63.6619 39.0514 63.4291 38.456 63.1658 37.8748 62.8827 37.3136 62.5697 36.7722 62.232 36.2512 61.8744 35.7396 61.4925 35.2578 61.0846 34.7859 60.6524 34.3488 60.206 33.9217 59.7292 33.5249 59.248 33.1524 58.7507 32.8047 58.2198 32.4818 57.6834 32.1838 57.1221 31.9156 56.5509 31.6672 55.9654 31.4586 55.3637 31.2804 54.7484 31.1258 54.122 31.0072 53.4868 30.9278 52.8411 30.8725 52.1867 30.8526 51.5205V48.7693L32.2838 49.5491v1.9515L32.3428 52.6927 32.5265 53.8246 32.8246 54.9223l.3917 1.053L33.7236 56.9731 34.324 57.9261 35.0095 58.8109 35.7794 59.6305 36.6287 60.3699 37.552 61.0399 38.5404 61.6161 39.5879 62.1078 40.6906 62.5002l1.1517.2881L43.0344 62.9615 44.2607 63.0211 45.4819 62.9615 46.674 62.7883l1.1474-.2881L48.9285 62.1078 49.9716 61.6161l.9878-.5762L51.8839 60.3699 52.7327 59.6305 53.5075 58.8109 54.1979 57.9261 54.794 56.9731 55.2951 55.9753 55.6974 54.9223 55.9898 53.8246 56.1686 52.6927 56.2034 51.9731zM56.2289 42.4679 57.6637 41.6484V47.91L56.2289 48.064V42.4679zm1.4348-4.1164H56.2289V31.1163H44.9263L44.9455 42.0358l-1.5137 1.2169V31.1163H32.2838v14.525L30.8526 44.6975V29.6857H57.6637v8.6658zM43.4318 52.9162 44.9263 53.1944v3.7191H43.4318V52.9162zM44.0024 19.8584 43.3821 19.8684 42.7662 19.8888 42.1503 19.928 41.5393 19.9832 40.9333 20.0478 40.328 20.1366 39.7319 20.2359 39.1415 20.3452 37.9742 20.6234 36.8367 20.9412 35.7098 21.3287 34.6121 21.7608l-1.0679.4818L32.5067 22.7834 31.489 23.3646 31.0023 23.6725 30.5105 23.9954 30.0386 24.3226 29.5624 24.6604 29.1048 25.018 28.6485 25.3856 28.2064 25.7631 27.7743 26.1455 27.3471 26.533 26.9404 26.9396 26.5275 27.3568 26.1358 27.774 25.7483 28.2161 25.3758 28.6582 25.0138 29.1096l-.3582.4619L24.3135 30.0384 23.9807 30.5202 23.6628 31.0064 23.3498 31.4938 22.7681 32.5114 22.2366 33.5489l-.4862 1.0686-.4315 1.0964L20.9365 36.8315l-.3279 1.1524-.2682 1.1673L20.2262 39.7416 20.1318 40.3377 20.0473 40.9387 19.9735 41.5441 19.9188 42.155 19.8785 42.7653 19.8542 43.3868 19.8437 44.0071 19.8542 44.628 19.8785 45.2439 19.9188 45.8598 19.9735 46.4702 20.0473 47.0712 20.1318 47.6722 20.2262 48.2682l.1142.5961.2682 1.1666.3279 1.1419L21.3189 52.291l.4315 1.1021.4862 1.0623L22.7681 55.5034 23.3498 56.5167 23.6628 57.0035 23.9807 57.4946 24.3135 57.9715 24.6556 58.4433 25.0138 58.9047 25.3758 59.3467 25.7483 59.7838 26.1358 60.2203 26.5275 60.6481 26.9404 61.0604 27.3471 61.4671 27.7743 61.865 28.2064 62.2419l.4421.3825L29.1048 62.987 29.5624 63.339 30.0386 63.6818 30.5105 64.0152 31.0023 64.338 31.489 64.6454 32.5067 65.2259 34.6121 66.2441 35.7098 66.6813 36.8367 67.0588 37.9742 67.3866 39.1415 67.6548 39.7319 67.7691 40.328 67.8684 40.9333 67.9522 41.5393 68.0224 42.1503 68.077 42.7662 68.1112 43.3821 68.1366 44.0024 68.1465 44.6233 68.1366 45.2441 68.1112 45.8594 68.077 46.4654 68.0224 47.0714 67.9522 47.6718 67.8684 48.2629 67.7691 48.854 67.6548 50.0212 67.3866 51.173 67.0588 52.2906 66.6813 53.3833 66.2441 54.4556 65.7623l1.0425-.5364L56.507 64.6454 57.0081 64.338 57.4849 64.0152 57.9711 63.6818 58.4336 63.339 58.8999 62.987 59.3476 62.6244 59.794 62.2419 60.2261 61.865 60.6477 61.4671 61.0699 61.0604 61.4673 60.6481 61.8653 60.2203 62.2521 59.7838 62.6296 59.3467 62.9872 58.9047 63.3448 58.4433 63.6869 57.9715 64.0148 57.4946 64.3376 57.0035 64.6456 56.5167 65.2267 55.5034 65.7632 54.4554 66.25 53.3931l.4358-1.1021L67.0633 51.1728 67.3862 50.0309 67.6594 48.8643 67.7736 48.2682 67.8779 47.6722 67.958 47.0712 68.0269 46.4702 68.0816 45.8598 68.1219 45.2439 68.1412 44.628 68.1561 44.0071 68.1412 43.3868 68.1219 42.7653 68.0816 42.155 68.0269 41.5441 67.958 40.9387 67.8779 40.3377 67.7736 39.7416 67.6594 39.1512 67.3862 37.9839 67.0633 36.8315 66.6858 35.7139 66.25 34.6175 65.7632 33.5489 65.2267 32.5114 64.6456 31.4938 64.3376 31.0064 64.0148 30.5202 63.6869 30.0384 63.3448 29.5715 62.9872 29.1096 62.6296 28.6582 62.2521 28.2161 61.8653 27.774 61.4673 27.3568 61.0699 26.9396 60.6477 26.533 60.2261 26.1455 59.794 25.7631 59.3476 25.3856 58.8999 25.018 58.4336 24.6604 57.9711 24.3226 57.4849 23.9954 57.0081 23.6725 56.507 23.3646 55.4981 22.7834 54.4556 22.2426l-1.0723-.4818L52.2906 21.3287 51.173 20.9412 50.0212 20.6234 48.854 20.3452 48.2629 20.2359 47.6718 20.1366 47.0714 20.0478 46.4654 19.9832 45.8594 19.928 45.2441 19.8888 44.6233 19.8684 44.0024 19.8584zm0-2.1004L43.3275 17.7679 42.6513 17.7927 41.9814 17.8325 41.3208 17.8871 40.6601 17.9709 40.0101 18.061 39.3644 18.1653 38.7242 18.2938 38.0878 18.4335 37.4576 18.5875 36.8318 18.7564 36.2109 18.9395 35.6005 19.1388 34.9946 19.3567l-1.1965.4725L32.6358 20.3502 31.5033 20.9363 30.9526 21.2436 30.4012 21.5615 29.8648 21.8993 29.3383 22.2476 28.8217 22.6145 28.3107 22.9871 27.814 23.3702 27.3179 23.7613 26.8361 24.1742 26.3636 24.5908 25.9017 25.018 25.4497 25.465l-.4359.4421L24.5811 26.3734 24.1638 26.8353 23.7516 27.322 23.3591 27.8094 22.9723 28.3148 22.6042 28.8271 22.2422 29.3381 21.8895 29.8745 21.5567 30.4103 21.2339 30.9567 20.9216 31.5037 20.3404 32.6399l-.5215 1.1629L19.342 34.9949 19.1334 35.6003 18.9297 36.2113 18.7466 36.8259 18.5777 37.4524 18.4188 38.0882 18.2791 38.729 18.1555 39.3697 18.0512 40.0204 17.9618 40.6705 17.8879 41.3305 17.8227 41.9911 17.778 42.6567 17.7532 43.3272 17.7482 44.0071 17.778 45.3526 17.8227 46.0238 17.8879 46.6838 17.9618 47.3394 18.0512 47.9901 18.1555 48.6458 18.2791 49.2865 18.4188 49.9217 18.5777 50.5525 18.7466 51.1777 18.9297 51.7992 19.1334 52.4089 19.342 53.0155 19.8189 54.2021l.5215 1.1672L20.9216 56.5012 21.2339 57.0575 21.5567 57.5989 21.8895 58.1397 22.2422 58.6669 22.6042 59.1778 22.9723 59.6888 23.3591 60.1862 23.7516 60.6729 24.1638 61.1591 24.5811 61.626 25.0138 62.0929 25.4497 62.5399 25.9017 62.987 26.3636 63.4135 26.8361 63.8357 27.3179 64.243 27.814 64.6354 28.3107 65.0179 28.8217 65.3954 29.3383 65.7574 29.8648 66.1057l.5364.3322L30.9526 66.7607 31.5033 67.0743 32.6358 67.6548 33.7981 68.1807 34.9946 68.6526 35.6005 68.8661 36.2109 69.0599 36.8318 69.2486 37.4576 69.4225 38.0878 69.5764 38.7242 69.7099 39.3644 69.8397 40.0101 69.944 40.6601 70.0328 41.3208 70.1129 41.9814 70.1725 42.6513 70.2172 43.3275 70.2414 44.0024 70.2514 44.6723 70.2414 45.3485 70.2172 46.0134 70.1725 46.674 70.1129 47.3347 70.0328 47.9947 69.944 48.6404 69.8397 49.2811 69.7099 49.9213 69.5764 50.5527 69.4225 51.173 69.2486 51.7939 69.0599 52.4098 68.8661 53.0158 68.6526 54.2073 68.1807 55.3646 67.6548 56.4971 67.0743 57.0528 66.7607 57.5992 66.4379 58.1306 66.1057 58.6615 65.7574 59.1837 65.3954 59.6897 65.0179 60.1914 64.6354 60.6831 64.243 61.1649 63.8357 61.6411 63.4135 62.0981 62.987 62.5501 62.5399 62.9872 62.0929 63.4193 61.626 63.8415 61.1591 64.2433 60.6729 64.6406 60.1862 65.0231 59.6888 65.4012 59.1778 65.7632 58.6669 66.1053 58.1397 66.4431 57.5989 66.7659 57.0575 67.0739 56.5012 67.6544 55.3693 68.1859 54.2021 68.6534 53.0155 68.8664 52.4089 69.07 51.7992 69.2544 51.1777 69.4277 50.5525 69.5773 49.9217 69.7207 49.2865 69.8399 48.6458 69.9492 47.9901 70.0436 47.3394 70.1175 46.6838 70.1721 46.0238 70.2174 45.3526 70.2416 44.6826 70.2522 44.0071 70.2416 43.3272 70.2174 42.6567 70.1721 41.9911 70.1175 41.3305 70.0436 40.6705 69.9492 40.0204 69.8399 39.3697 69.7207 38.729 69.5773 38.0882 69.4277 37.4524 69.2544 36.8259 69.07 36.2113 68.8664 35.6003 68.6534 34.9949 68.1859 33.8028 67.6544 32.6399 67.0739 31.5037 66.7659 30.9567 66.4431 30.4103 66.1053 29.8745 65.7632 29.3381 65.4012 28.8271 65.0231 28.3148 64.6406 27.8094 64.2433 27.322 63.8415 26.8353 63.4193 26.3734 62.9872 25.9071 62.5501 25.465 62.0981 25.018 61.6411 24.5908 61.1649 24.1742 60.6831 23.7613 60.1914 23.3702 59.6897 22.9871 59.1837 22.6145 58.6615 22.2476 58.1306 21.8993 57.5992 21.5615 57.0528 21.2436 56.4971 20.9363 55.3646 20.3502 54.2073 19.8292l-1.1915-.4725L52.4098 19.1388 51.7939 18.9395 51.173 18.7564 50.5527 18.5875 49.9213 18.4335 49.2811 18.2938 48.6404 18.1653 47.9947 18.061 47.3347 17.9709 46.674 17.8871 46.0134 17.8325 45.3485 17.7927 44.6723 17.7679 44.0024 17.758zm0-14.51511L42.95 3.25779 41.9069 3.29753 40.8737 3.36707 39.8412 3.46144l-1.0226.10866L37.8103 3.71911l-1.009.16391-1.0027.19434-.9878.21855L33.8323 4.52874 32.8643 4.79697 31.9063 5.08506 30.9526 5.39798 30.0138 5.72581 29.08 6.07848 28.1617 6.46032l-.9084.39737-.8996.4222L25.4702 7.71762 24.596 8.17893 23.7366 8.66074 22.8929 9.15745 22.054 9.68334 21.2339 10.2248 20.4348 10.7867 19.6357 11.3566 18.8602 11.9583 18.0959 12.5686 17.3465 13.2044 16.6157 13.8545 15.8961 14.5256 15.1957 15.2105l-.6755.7003L13.8503 16.6211 13.1946 17.3606 12.5638 18.1057 11.9479 18.8706 11.3568 19.6498 10.7756 20.4396 10.215 21.2436 9.67358 22.0682 9.15265 22.9026 8.65532 23.7421l-.48615.863L7.7122 25.4799l-.44704.8842-.42158.8934L6.45056 28.1664 6.06809 29.0854l-.35204.9282L5.38325 30.9567 5.07529 31.9054l-.28809.9636L4.52891 33.8376 4.28615 34.8211 4.06759 35.8083 3.87326 36.8017 3.70438 37.815 3.44609 39.8509 3.3573 40.8791 3.29273 41.9116 3.24802 42.9597 3.23312 44.0071 3.24802 45.0552 3.29273 46.0927 3.3573 47.1358 3.44609 48.1639l.11983 1.0183.13846 1.0182.16888 1.0077L4.06759 52.2059 4.28615 53.1944 4.52891 54.1679 4.7872 55.1402l.28809.9636L5.38325 57.0575 5.71605 57.9957 6.06809 58.9301 6.45056 59.8385 6.84358 60.7474 7.26516 61.6359l.44704.8842L8.16917 63.3986 8.65532 64.2579 9.15265 65.1067 9.67358 65.9368 10.215 66.7607 10.7756 67.5648 11.3568 68.3601 11.9479 69.1393 12.5638 69.8993 13.1946 70.6438 13.8503 71.3789 14.5202 72.0997 15.1957 72.7945 15.8961 73.4793 16.6157 74.1499 17.3465 74.8 18.0959 75.4314 18.8602 76.0467 19.6357 76.6428 20.4348 77.2239 21.2339 77.7752 22.054 78.3216 22.8929 78.8426 23.7366 79.3393 24.596 79.8254 25.4702 80.288 26.3537 80.73 27.2533 81.1473 28.1617 81.549 29.08 81.9265 30.0138 82.2792 30.9526 82.6113 31.9063 82.9249 32.8643 83.2074 33.8323 83.47 34.8108 83.714l.9878.2136L36.8013 84.1213 37.8103 84.2852 38.8186 84.4287 39.8412 84.5479 40.8737 84.6435 41.9069 84.7074 42.95 84.7478l1.0524.0137 1.0474-.0137L46.0929 84.7074 47.1316 84.6435 48.1536 84.5479 49.1768 84.4287 50.1945 84.2852 51.1984 84.1213 52.1962 83.9276 53.1847 83.714 54.1675 83.47 55.1411 83.2074 56.1041 82.9249 57.0528 82.6113 57.9965 82.2792 58.9248 81.9265 59.8437 81.549 60.752 81.1473 61.6517 80.73 62.5296 80.288 63.4044 79.8254 64.2631 79.3393 65.1125 78.8426 65.9414 78.3216 66.761 77.7752 67.5749 77.2239 68.3597 76.6428 69.1445 76.0467 69.9039 75.4314 70.6539 74.8 71.3841 74.1499 72.0944 73.4793 72.7991 72.7945 73.4852 72.0997 74.1452 71.3789 74.7958 70.6438 75.431 69.8993 76.0426 69.1393 76.643 68.3601 77.2241 67.5648 77.7848 66.7607 78.3212 65.9368 78.8434 65.1067 79.3494 64.2579 79.8256 63.3986 80.2926 62.5201 80.7247 61.6359 81.1475 60.7474 81.5492 59.8385 81.9218 58.9301 82.2794 57.9957 82.6116 57.0575 82.9195 56.1038l.2881-.9636L83.4709 54.1679 83.7149 53.1944 83.9278 52.2059 84.1166 51.2081l.1738-1.0077L84.4289 49.1822 84.5487 48.1639 84.6431 47.1358 84.7021 46.0927 84.7418 45.0552 84.7573 44.0071 84.7418 42.9597 84.7021 41.9116 84.6431 40.8791 84.5487 39.8509 84.4289 38.8283 84.2904 37.815l-.1738-1.0133L83.9278 35.8083 83.7149 34.8211 83.4709 33.8376 83.2076 32.869l-.2881-.9636L82.6116 30.9567 82.2794 30.0136 81.9218 29.0854 81.5492 28.1664 81.1475 27.2575 80.7247 26.3641 80.2926 25.4799 79.8256 24.6051 79.3494 23.7421 78.8434 22.9026 78.3212 22.0682l-.5364-.8246L77.2241 20.4396 76.643 19.6498 76.0426 18.8706 75.431 18.1057 74.7958 17.3606 74.1452 16.6211 73.4852 15.9108 72.7991 15.2105 72.0944 14.5256 71.3841 13.8545 70.6539 13.2044l-.75-.6358L69.1445 11.9583 68.3597 11.3566 67.5749 10.7867 66.761 10.2248 65.9414 9.68334 65.1125 9.15745 64.2631 8.66074 63.4044 8.17893 62.5296 7.71762 61.6517 7.27989 60.752 6.85769 59.8437 6.46032 58.9248 6.07848l-.9283-.35267L57.0528 5.39798 56.1041 5.08506 55.1411 4.79697 54.1675 4.52874 53.1847 4.29591 52.1962 4.07736 51.1984 3.88302l-1.0039-.16391-1.0177-.14901-1.0232-.10866L47.1316 3.36707 46.0929 3.29753 45.0498 3.25779 44.0024 3.24289zM44.0024.0 42.8655.0149013 41.738.060226 40.6204.129144 39.5084.229107 38.4107.35763 37.3136.506022 36.2314.690425 35.1479.899043l-1.0623.228487-1.0624.25767-1.0474.29368-1.0331.30796-1.0332.32782-1.0183.36198L27.8935 3.06469 26.9001 3.47137 25.9172 3.89296l-.968.46256L23.9906 4.82242 23.0518 5.32845 22.123 5.84502 21.2096 6.38644l-.904.56562L19.4271 7.53321 18.5578 8.1392l-.8642.62585L16.8547 9.41015 16.0352 10.0708 15.2255 10.7513 14.4364 11.4566 13.6609 12.1768 12.9109 12.9113l-.7445.76L11.4468 14.4406 10.7465 15.2353 10.0616 16.0394 9.39542 16.8689 8.7497 17.7083 8.12943 18.562 7.52345 19.4313l-.58612.8841-.56128.904-.53645.9133L5.31371 23.0616 4.81762 24.0053 4.34016 24.9584l-.45138.9636-.43214.9785L3.05431 27.8982l-.38247 1.0027-.3626 1.0177-.33776 1.0232-.30796 1.0381-.2825 1.0475-.25829 1.0629-.233452 1.0673L.68066 36.2305.501845 37.3183.223688 39.5181l-.10493 1.112-.0732648 1.1133-.04035756 1.1312-.01490126 1.1325.01490126 1.1325.04035756 1.1269.0732648 1.1126.10493 1.117.11921 1.1027.158947 1.0921.178815 1.0878.208618 1.0779.233452 1.0673.25829 1.058.2825 1.0431.30796 1.0425.33776 1.0275.3626 1.0133L3.05431 60.1017 3.45664 61.0995 3.88878 62.078 4.34016 63.0466 4.81762 64.0046 5.31371 64.9434 5.8396 65.8716 6.37605 66.7856 6.93733 67.6889 7.52345 68.5737 8.12943 69.4423 8.7497 70.2961 9.39542 71.1411 10.0616 71.965 10.7465 72.7641 11.4468 73.5588 12.1664 74.3287 12.9109 75.0936 13.6609 75.8281 14.4364 76.5434 15.2255 77.2531 16.0352 77.9342 16.8547 78.5992 17.6936 79.2443 18.5578 79.8658 19.4271 80.4711 20.3056 81.0573l.904.5612L22.123 82.16 23.0518 82.6809 23.9906 83.1782 24.9492 83.6495 25.9172 84.1064 26.9001 84.5379 27.8935 84.9459 28.8912 85.3283 29.9095 85.6853 30.9427 86.0231 31.9758 86.3311 33.0232 86.6142 34.0856 86.8774 35.1479 87.1103l1.0835.2042L37.3136 87.4977 38.4107 87.6517 39.5084 87.7765 40.6204 87.8752 41.738 87.9503 42.8655 87.9845 44.0024 88 45.1299 87.9845 46.2568 87.9503 47.3794 87.8752 48.4864 87.7765 49.5941 87.6517 50.6862 87.4977 51.7796 87.3145l1.0673-.2042L53.9248 86.8774 54.9765 86.6142 56.0252 86.3311 57.0677 86.0231 58.0909 85.6853 59.1036 85.3283 60.1113 84.9459 61.1053 84.5379 62.0832 84.1064 63.0512 83.6495 64.0055 83.1782 64.9486 82.6809 65.8774 82.16 66.7914 81.6185 67.6898 81.0573 68.5733 80.4711 69.4525 79.8658 70.3019 79.2443 71.1407 78.5992 71.9652 77.9342 72.7699 77.2531 73.559 76.5434 74.3339 75.8281 75.0889 75.0936 75.8284 74.3287 76.5536 73.5588 77.249 72.7641 77.9344 71.965 78.5944 71.1411 79.2402 70.2961 79.8654 69.4423 80.4714 68.5737 81.0525 67.6889 81.6188 66.7856 82.1651 65.8716 82.6768 64.9434 83.1784 64.0046 83.6497 63.0466 84.106 62.078 84.5332 61.0995 84.9461 60.1017 85.3236 59.1083 85.6862 58.095 86.019 57.0675 86.3269 56.025 86.6144 54.9819 86.8733 53.9239 87.1105 52.8566 87.3142 51.7787 87.4936 50.6909 87.6476 49.5988 87.7817 48.4961 87.8754 47.3791 87.9456 46.2665 87.9903 45.1396 88.0096 44.0071 87.9903 42.8746 87.9456 41.7434 87.8754 40.6301 87.7817 39.5181 87.6476 38.416 87.4936 37.3183 87.3142 36.2305 87.1105 35.1576 86.8733 34.0903 86.6144 33.0274 86.3269 31.9799 86.019 30.9418 85.6862 29.9186 85.3236 28.9009 84.9461 27.8982 84.5332 26.9005 84.106 25.922 83.6497 24.9584 83.1784 24.0053 82.6768 23.0616 82.1651 22.1327 81.6188 21.2194 81.0525 20.3154 80.4714 19.4313 79.8654 18.562 79.2402 17.7083 78.5944 16.8689 77.9344 16.0394 77.249 15.2353 76.5536 14.4406 75.8284 13.6713 75.0889 12.9113 74.3339 12.1768 73.559 11.4566 72.7699 10.7513 71.9652 10.0708 71.1407 9.41015 70.3019 8.76505 69.4525 8.1392 68.5733 7.53321 67.6898 6.95206 66.7914 6.38644 65.8774 5.84502 64.9486 5.32845 64.0055 4.82242 63.0512 4.35552 62.0832 3.89296 61.1053 3.47137l-.994-.40668-1.0077-.38805-1.0127-.36198-1.0232-.32782-1.0425-.30796-1.0487-.29368-1.0517-.25767L52.8469.899043 51.7796.690425 50.6862.506022 49.5941.35763 48.4864.229107 47.3794.129144 46.2568.060226 45.1299.0149013 44.0024.0zM43.2821 7.83683 43.3672 9.89693 43.9825 9.87271 44.1514 9.86216 44.3004 9.81807 44.4196 9.74853 44.519 9.63864 44.5984 9.49025 44.6531 9.32136 44.6723 9.11275V8.86874L44.6531 8.63094 44.6139 8.41735 44.5494 8.23357 44.4693 8.08953 44.3799 7.97032 44.2706 7.8865 44.1415 7.83124 43.9974 7.81137 43.2821 7.83683zM43.9186 12.2265 43.4616 12.2457 43.61 15.9108 42.0857 15.9704 41.6536 5.43213 43.8689 5.34831 44.1272 5.33838 44.3699 5.34831 44.5984 5.38805 44.807 5.44766 45.0008 5.54141l.1738.11983L45.3385 5.80094l.1434.16764L45.6111 6.16292 45.721 6.38147 45.8197 6.6292 45.8998 6.89743 45.9588 7.19607l.0503.32224L46.0383 7.86601 46.0538 8.23854V8.74518L46.0333 9.1916 45.9842 9.59952 45.9091 9.95156 45.8197 10.2546 45.6906 10.5029 45.6167 10.6072 45.5465 10.6966 45.4577 10.7811 45.3683 10.8506 45.4726 10.9046 45.5819 10.9748 45.6713 11.0543 45.7551 11.1586 45.9091 11.4119 46.0383 11.7242 46.1482 12.1017 46.2227 12.5438 46.2723 13.0504 46.2966 13.6216 46.2916 14.0786 46.317 14.7392 46.3667 15.1956 46.4009 15.3396 46.4406 15.429 46.4803 15.4638 46.525 15.4439 46.5406 15.7916 44.9859 15.8512 44.9455 15.6122 44.9064 15.2254 44.8325 14.0233 44.8219 13.5521 44.7822 13.1597 44.7127 12.8312 44.6189 12.5636 44.5537 12.4693 44.4842 12.3798 44.4097 12.3053 44.3302 12.2557 44.2365 12.2265 44.1365 12.211H44.0371L43.9186 12.2265zm6.3311 60.319L50.2404 72.5809 50.2249 72.6207 50.215 72.6554 50.2044 72.6902 50.1945 72.72 50.1852 72.7541 50.1802 72.7846 50.1752 72.8187V72.8541L50.1703 72.8889V72.923L50.1752 72.9584V72.9926L50.1802 73.0273 50.1852 73.0677 50.1945 73.0969 50.2044 73.1366 50.215 73.1819 50.2249 73.226 50.2404 73.2713 50.2646 73.3601 50.3044 73.4595 50.3447 73.5638 50.3938 73.683 50.508 73.9462 50.8607 74.9844 50.9203 75.1085 51.0687 75.3768 51.6852 76.8358 51.8038 77.4077 51.3624 77.874 51.322 77.8988 51.2823 77.9236 51.2376 77.9441 51.1984 77.9634 51.1531 77.9839 51.1084 78.0031 51.0147 78.0385 50.97 78.0578 50.9253 78.0776 50.8806 78.0981 50.8402 78.1273 50.8005 78.1527 50.7564 78.1819 50.7359 78.1968 50.7166 78.2124 50.7017 78.2266 50.6812 78.2465 50.7017 78.2862 50.7216 78.326 50.7564 78.4005 50.7961 78.4899 50.816 78.5253 50.8402 78.565 50.8501 78.5849 50.8607 78.5992 50.8706 78.6141 50.8855 78.6296 50.9147 78.6588 50.9302 78.6687 50.97 78.6892 50.9898 78.6979 51.0091 78.7084 51.0345 78.7134 51.0538 78.7184H51.0842L51.1134 78.7233H51.1388L51.1488 78.7339 51.1531 78.7382 51.1581 78.7488 51.1631 78.7581V78.8382L51.168 78.8481 51.173 78.8525 51.178 78.8624 51.258 78.9469 51.2928 78.9419 51.322 78.9369 51.3524 78.927 51.3816 78.9171 51.417 78.9028 51.4412 78.8873 51.471 78.8724 51.4909 78.8581 51.5455 78.8177 51.5952 78.783 51.62 78.768 51.6498 78.7525 51.6796 78.7432 51.7094 78.7233 52.0578 78.3167 52.077 78.326 52.1068 78.3458 52.1167 78.3564 52.1316 78.3663 52.1416 78.3806 52.1465 78.3955 52.1565 78.421 52.1708 78.4501 52.1813 78.4849 52.1962 78.5197 52.2012 78.5352 52.2111 78.5495 52.4148 79.2598 52.4247 79.3299 52.4346 79.4088 52.4439 79.4883 52.4539 79.5727 52.4644 79.6621 52.4793 79.7615 52.4936 79.8707 52.5141 79.9893 52.4694 80.0347 52.4148 80.0893 52.2558 80.2129 52.0869 80.3817 51.9926 80.4662 51.9081 80.5463 51.8684 80.5959 51.8237 80.635 51.7939 80.6798 51.7591 80.7201 51.7243 80.7592 51.6896 80.799 51.6647 80.8344 51.6399 80.8691 51.62 80.9082 51.6051 80.9387 51.6002 80.9579 51.5952 80.9678V80.9827L51.5902 80.9983V81.0076L51.5952 81.0225V81.0324L51.6002 81.043 51.6051 81.0523 51.6101 81.0622 51.62 81.0722 51.6306 81.0771 51.8839 81.1665 52.7525 81.0976 52.7923 81.1075 53.5969 81.2361 54.0582 81.395 54.5798 81.3006 54.6046 81.2907 54.6351 81.2857 54.6642 81.2758 54.6884 81.2609 54.7139 81.251 54.7394 81.2361 54.7636 81.2212 54.7884 81.2013 54.8381 81.1715 54.9176 81.1119 54.9424 81.0976 54.9623 81.0871 54.9666 81.0479 54.9722 81.0076 54.9821 80.9678 54.9921 80.9337 55.007 80.889 55.0163 80.8486 55.0318 80.8188 55.0517 80.7847 54.8778 79.9943 54.4202 78.8873 54.4109 78.8773 54.4059 78.8674 54.401 78.8624 54.396 78.8525V78.8326L54.401 78.8128 54.4059 78.8034 54.4109 78.7929 54.4165 78.7879 54.4202 78.778 54.4308 78.773H54.4506L54.5003 78.7879 54.5401 78.8034 54.6146 78.8382 54.6543 78.8525 54.6884 78.8674 54.7089 78.8724 54.7487 78.8823H54.7685L55.2299 78.9711 55.2497 79.0015 55.2752 79.0207 55.2951 79.0412 55.3149 79.0568 55.3391 79.0661 55.3596 79.0754 55.3795 79.081 55.4037 79.0859 55.4484 79.0959 55.4739 79.1008 55.4931 79.1058 55.5186 79.1157 55.5384 79.1263 55.5577 79.1406 55.5831 79.1611 56.3431 79.5026 56.3574 79.4932 56.3723 79.4833 56.3828 79.4783 56.3977 79.4734 56.4071 79.4684 56.422 79.4634H56.4319L56.4418 79.4684H56.4524L56.4567 79.4734 56.4766 79.4833 56.4971 79.4988 56.5163 79.5131 56.5412 79.528 56.5617 79.5429 56.5809 79.5572 56.5958 79.5628 56.6057 79.5671H56.6163L56.6306 79.5727H56.6753L56.6902 79.5671 56.7057 79.5628 56.7206 79.5528 56.7647 79.5876 56.7796 79.5975 56.7895 79.6075 56.7945 79.6273 56.8044 79.6423 56.8144 79.677 56.8299 79.7118 56.8342 79.7317 56.8442 79.7466 56.8491 79.7615 56.8591 79.7757 56.8746 79.7913 56.8889 79.8012 56.9038 79.8111 56.9236 79.8217 57.0031 79.7813 57.0776 79.7416 57.2415 79.6621 57.3309 79.6125 57.4154 79.5727 57.4601 79.5479 57.5048 79.5175 57.5495 79.4932 57.6041 79.4634 57.6488 79.4287 57.6929 79.3982 57.7426 79.3641 57.7929 79.3194 57.8425 79.2797 57.8922 79.2443 57.9419 79.1952 57.9965 79.1505 58.0406 79.1008 58.0909 79.0462 58.1406 78.9816 58.1952 78.927 58.2492 78.8624 58.3039 78.7985 58.3492 78.7233 58.4032 78.6538 58.3144 78.6637 58.284 78.6687H58.2244L58.2201 78.6637 58.2101 78.6588V78.6346L58.2201 78.6141 58.2294 78.5899 58.2449 78.5303 58.2548 78.4949 58.2648 78.4551 58.2201 78.47 58.1896 78.4806H58.1847L58.1896 78.4756 58.2101 78.4607 58.2492 78.4402 58.3386 78.3763 58.4678 78.3117 58.6224 78.2266 58.7807 78.1378 58.9347 78.0435 58.7807 77.9193 58.7267 77.8945 58.6615 77.8696 58.5926 77.8398 58.4976 77.8044 58.3982 77.7603 58.3436 77.7448 58.2939 77.7256 58.1747 77.6958 58.1108 77.6803 58.0512 77.666 57.9916 77.6505 57.927 77.6356 57.8519 77.6262 57.7829 77.6163 57.7134 77.6064 57.6488 77.6008h-.2241L57.3558 77.6064 57.2862 77.6163 57.2061 77.6262 57.1664 77.6306 57.1323 77.6405 57.0925 77.6505 57.0627 77.661 57.023 77.6709 56.9882 77.6803 56.9429 77.6958 56.9087 77.7107 56.8442 77.7448 56.7895 77.7852 56.7399 77.8299 56.6952 77.8696 56.6014 77.9441 56.5163 78.0131 56.4766 78.0435 56.4369 78.0776 56.3928 78.1124 56.3431 78.1428 56.2978 78.172 56.2481 78.2024 56.1935 78.2316 56.1388 78.262 54.2122 78.4949 54.1979 78.47 54.1675 78.4501 54.1483 78.4259 54.1278 78.3955 54.1129 78.3713 54.0936 78.3458 54.0781 78.3216 54.0483 78.267 53.8447 77.9038 53.8304 77.8491 53.8049 77.7895 53.7851 77.7349 53.7559 77.6902 53.7304 77.6405 53.7062 77.5915 53.6516 77.4816 53.5969 77.3928 53.5317 77.2934 53.5075 77.2388 53.4827 77.1891 53.4529 77.1345 53.433 77.0848 53.4274 77.0799V77.0699L53.4231 77.065V77.06L53.4274 77.0445V77.0302L53.4374 77.0153 53.4479 77.0004 53.4622 76.9706 53.4827 76.9457 53.4926 76.9308 53.5026 76.901V76.8613L53.4976 76.8563 53.4877 76.8414 53.4771 76.8259 53.4572 76.8017 53.4374 76.7769 53.4125 76.7471 53.4076 76.7315 53.3982 76.7173 53.3883 76.6974 53.3833 76.6825V76.6229L53.3883 76.603 53.5119 76.4639 53.6311 76.3255 53.7354 76.1907 53.8447 76.0672 53.9539 75.9374 54.0483 75.8182 54.1526 75.699 54.2576 75.5804 54.3023 75.5258 54.3563 75.4711 54.4059 75.4165 54.4606 75.3612 54.5208 75.3023 54.5748 75.2476 54.6295 75.2029 54.6841 75.1483 54.7431 75.0986 54.8077 75.0489 54.8728 74.9943 54.9325 74.9446 54.997 74.8993 55.0659 74.8496 55.2106 74.7559 55.6179 74.5572 55.598 74.5218 55.5831 74.4877 55.5527 74.4225 55.5285 74.3591 55.508 74.3132 55.4931 74.289 55.4788 74.2641 55.4639 74.2393 55.4484 74.2145 55.4292 74.1952 55.4037 74.1747 55.3795 74.1549 55.354 74.1306 55.2752 74.1847 55.2056 74.2343 55.1305 74.284 55.0566 74.3237 54.9821 74.3635 54.912 74.4088 54.8437 74.443 54.7636 74.4777 54.6841 74.5125 54.5997 74.5423 54.5208 74.5721 54.4202 74.5963 54.3215 74.6218 54.2222 74.6416 54.1079 74.6665 53.9837 74.6957 53.4274 74.7757 53.3678 74.8403 53.8204 75.2874 53.3982 75.8778 53.035 76.2758 52.9512 76.146 52.8618 76.0175 52.7823 75.8828 52.7122 75.7636 52.6383 75.64 52.5582 75.5152 52.4893 75.391 52.4197 75.2675 52.3601 75.1483 52.2906 75.0291 52.2254 74.9092 52.167 74.7906 52.1068 74.6615 52.0522 74.5473 51.9876 74.4225 51.933 74.3045 51.9181 74.279 51.7541 74.0208 51.7243 73.9816 51.6995 73.9363 51.6697 73.8916 51.6449 73.8419 51.625 73.7972 51.6002 73.7426 51.5555 73.6532 51.5107 73.5588 51.4909 73.5141 51.471 73.4644 51.4462 73.4148 51.417 73.3806 51.3816 73.3359 51.3468 73.2956V73.2763L51.3419 73.2608 51.3319 73.2459 51.327 73.226 51.3077 73.1819 51.2823 73.1273 51.2531 73.0677 51.2177 72.9876 51.1984 72.9435 51.1835 72.8889 51.1631 72.8342 51.1438 72.7641 51.1233 72.5809 51.1084 72.2978 51.0488 72.2581 50.9991 72.2227 50.9799 72.2034 50.9544 72.1935 50.9302 72.1786 50.9104 72.168 50.8855 72.1587 50.8657 72.1488 50.8452 72.1438 50.8209 72.1388H50.7961L50.7613 72.1339 50.7359 72.1289H50.7067L50.6316 72.168 50.5627 72.2177 50.5322 72.2431 50.4981 72.263 50.4627 72.2872 50.4285 72.3127 50.3987 72.3425 50.3689 72.3673 50.3447 72.3915 50.3186 72.422 50.2988 72.4518 50.2795 72.4766 50.2646 72.5064 50.2497 72.5455zM65.4503 65.3457 65.4403 65.3749 65.4354 65.4053 65.4304 65.4295V65.4898L65.4354 65.5096 65.4403 65.5239 65.4453 65.5438 65.4503 65.5593 65.4546 65.5742 65.4596 65.5835 65.4794 65.614 65.4999 65.6332 65.5397 65.6835 65.5595 65.7133 65.5794 65.7375 65.5838 65.7524 65.5943 65.7679 65.5993 65.7878 65.6042 65.8021 65.6092 65.8219V65.8424L65.6142 65.8617V65.8871L65.6185 65.9014V65.9213L65.6235 65.9368V65.961L65.6185 66.0057V66.0753L65.6235 66.0958V66.115L65.6285 66.1398 65.634 66.1603 65.6489 66.1845 65.6781 66.2243 65.6881 66.2646V66.3739L65.6837 66.4087V66.4379L65.6732 66.4975 65.6688 66.5273V66.6068L65.6732 66.6266 65.6781 66.6415 65.6837 66.6564 65.6881 66.6713 65.693 66.6862 65.7036 66.7017 65.7135 66.721 65.7228 66.7359 65.7682 66.8098 65.5887 67.0389 65.5595 67.0234 65.5297 67.0091 65.4751 66.9787 65.4254 66.9445 65.3708 66.9048 65.3155 66.8694 65.2665 66.8352 65.2168 66.7961 65.1721 66.7558 65.0821 66.6763 64.9834 66.5875 64.9337 66.5521 64.884 66.5124 64.8294 66.4782 64.7847 66.4428 64.7592 66.423 64.7549 66.413V66.3882L64.7592 66.3739 64.7648 66.364 64.7747 66.3485 64.7847 66.3385 64.8052 66.3187 64.8238 66.2988 64.8294 66.2889V66.2789L64.8344 66.2739V66.2696L64.8294 66.2646V66.2541L64.8188 66.2441 64.4568 65.6332 65.1771 65.1818 65.2069 65.1917 65.241 65.211 65.2715 65.2259 65.3056 65.2464 65.336 65.2706 65.3708 65.2911 65.4254 65.3308 65.4503 65.3457zM63.2455 66.6316 63.3647 66.9445 63.4144 67.019 64.0943 67.5455 64.1886 67.5803 64.2035 67.5853H64.2234L64.3078 67.5747 64.3525 67.5697 64.3966 67.5648 64.4463 67.5598H64.5264L64.9095 67.4859 65.1963 67.4909 65.3056 67.4009 65.3751 67.4114 65.693 67.6598 65.7228 67.7188 65.7135 67.7436 65.7036 67.7691 65.6986 67.7933V67.8138L65.693 67.838 65.6986 67.8684V67.8926L65.7036 67.9181 65.7135 68.0174V68.0869L65.7086 68.1062 65.9315 68.2906 66.1506 69.2281 65.8917 69.4473 65.9172 69.8894 66.0109 69.9341 66.096 69.9732 66.1848 70.0185 66.2295 70.0434 66.2742 70.0632 66.3239 70.0775 66.3686 70.0974 66.4139 70.1129 66.458 70.1278 66.5076 70.1427 66.5523 70.1576 66.607 70.1675 66.6517 70.1775 66.6964 70.1868 66.7461 70.1967 66.7957 70.2017 66.846 70.2073 66.8957 70.2122H67.049L67.0987 70.2073 67.1484 70.2017 67.203 70.1967 67.2577 70.1868 67.3123 70.1775 67.362 70.1626 67.4116 70.147 67.4663 70.1321 67.8189 69.7546 67.7991 69.7304 67.7736 69.6957 67.7494 69.6708 67.719 69.651 67.6948 69.6261 67.6644 69.6013 67.6147 69.5566 67.6047 69.5516 67.5998 69.5466 67.5954 69.5373 67.5905 69.5317 67.5855 69.5168V69.5013L67.5805 69.4771V69.4473L67.5749 69.4423V69.433L67.5706 69.4274 67.5607 69.4225 67.5551 69.4076 67.5451 69.4026 67.5358 69.3976 67.5209 69.3871 67.506 69.3827 67.4905 69.3784 67.4514 69.3684 67.4061 69.3529 67.3365 69.3324 67.3278 69.3188 67.3173 69.3033 67.3123 69.2884 67.3024 69.2486V69.2281L67.2974 69.2089V69.189L67.2924 69.1648 67.2974 69.1139 67.3024 69.0599 67.3073 69.0096 67.3123 68.9506 67.3278 68.8916 67.3415 68.8314 67.357 68.7618 67.3918 68.6283 67.4315 68.4887 67.4458 68.4148 67.4663 68.3396 67.4812 68.2651 67.5004 68.1913 67.5104 68.1112 67.5309 68.0416 67.5408 67.9621 67.5451 67.8876 67.5501 67.8088V67.7045L67.5408 67.63V67.5952L67.5309 67.5505 67.5209 67.5151 67.5104 67.4859 67.506 67.4518 67.4961 67.4164 67.4812 67.3866 67.4514 67.317 67.6544 66.7806 67.7246 66.364 67.7587 66.3689 67.7891 66.3739H67.8935L67.9133 66.3689 67.9326 66.364 67.9481 66.3584 67.968 66.3485 68.0077 66.3336 68.0524 66.3087 68.1064 66.2889 68.1219 66.3044 68.1362 66.3242 68.1617 66.3385 68.1815 66.3534 68.2207 66.3789 68.2554 66.4031 68.2809 66.413 68.3001 66.4286 68.315 66.4428 68.3355 66.4627 68.3498 66.4782 68.3647 66.4975 68.3753 66.5223 68.3796 66.5329 68.3852 66.5471 68.8819 67.4058 68.8912 67.8138 68.8962 67.8535 69.1247 68.5085 69.1296 68.5141 69.1352 68.5191 69.1396 68.5383 69.1501 68.5582V68.588L69.1539 68.6135V68.6377L69.1501 68.6575V68.6625L69.1445 68.6681 69.1352 68.7271 69.2936 69.0748 69.3184 69.0953 69.3283 69.1102 69.3383 69.1195 69.3538 69.1294 69.3724 69.1393 69.383 69.1443 69.4028 69.1493H69.4376L69.4575 69.1443 69.4823 69.1393 69.5022 69.1344 69.5469 69.1195 69.5717 69.1102 69.5916 69.0953 69.6164 69.0897 69.6406 69.0847H69.676L69.6853 69.0897 70.1628 69.04l-1.1673 2.1203L68.5187 71.8452 68.5237 71.9104 68.5336 71.9954V72.0395L68.5392 72.0892V72.1339L68.5336 72.168 68.5541 72.1736 68.5733 72.1786 68.5932 72.1835 68.6137 72.1885H68.6876L68.7223 72.1835 68.7577 72.1786 68.7968 72.168 68.8316 72.1587 68.8912 72.1438 68.921 72.1388 68.9558 72.1339H69.0651L69.0856 72.1388H69.1048L69.1843 72.1339 69.4717 71.7713 69.4767 71.7613V71.7564L69.4823 71.7514V71.7315L69.4767 71.7222 69.4717 71.7117 69.4525 71.6912 69.4426 71.6775 69.4184 71.657 69.4028 71.6421 69.378 71.6173 69.3681 71.608 69.3631 71.5925 69.3587 71.5732 69.6562 71.0014 70.6992 69.587 70.8129 69.5168 70.893 69.5764 70.9718 69.6311 71.0364 69.6758 71.091 69.7205 71.1407 69.7652 71.186 69.8 71.2251 69.8347 71.2649 69.8639 71.2947 69.8943 71.3195 69.9186 71.3543 69.9645 71.3946 70.0036 71.4288 70.0477 71.4393 70.1278 71.3946 70.1917 71.3493 70.2514 71.3096 70.3116 71.2649 70.3761 71.1661 70.4954 71.0718 70.6096 70.9817 70.7332 70.8774 70.8524 70.6837 71.0864 70.5794 71.205 70.4807 71.3242 70.3857 71.4435 70.2864 71.5577 70.1926 71.6825 70.1479 71.7464 70.1082 71.8061 70.0628 71.8657 70.0187 71.9302 69.974 71.9954 69.9343 72.0594 69.9442 72.0842 69.9536 72.1041 69.9685 72.1184 69.984 72.1388 70.0132 72.168 70.0336 72.1835 70.0485 72.1984 70.0628 72.2133 70.0833 72.2227 70.1032 72.2382 70.1175 72.2431 70.1373 72.2531 70.1578 72.263 70.1827 72.268 70.2075 72.2723 70.7489 71.8508 70.7831 71.8607 70.8129 71.8706 70.8433 71.8855 70.8725 71.9054 70.8979 71.9203 70.9221 71.9402 70.9476 71.96 70.9718 71.9799 71.0122 72.0196 71.0519 72.0594 71.0767 72.0792 71.101 72.0997 71.1264 72.1184 71.1556 72.1339 71.1755 72.1488 71.186 72.1388 71.1953 72.1339 71.2003 72.1239 71.2102 72.1184 71.2208 72.1134 71.2307 72.109 71.2549 72.1041 71.2748 72.0997 71.2947 72.0941H71.3897L71.4089 72.0892H71.4238L71.4443 72.0792 71.4493 72.0743 71.458 72.0693 71.4635 72.0594 71.4735 72.0544 71.8559 71.4832 72.2931 70.7586 72.3725 70.093 72.1583 69.705 72.1341 69.6708 72.1093 69.6416 72.054 69.5715 72.0298 69.5411 71.9994 69.5069 71.9652 69.4771 71.9404 69.4473 71.8758 69.3784 71.8063 69.3281 71.7367 69.2685 71.6622 69.2145 71.6026 69.1648 71.5232 69.1102 71.4493 69.0555 71.3692 69.0096 71.2208 68.9158 71.0718 68.8165 71.0811 68.8016 71.091 68.7823 71.096 68.7668 71.101 68.7469 71.1059 68.7327 71.1165 68.7227 71.1214 68.7022 71.1357 68.6867 71.1606 68.6681 71.186 68.6426 71.2102 68.6234 71.2854 68.5483 71.3294 68.4992 71.3642 68.4439 71.4039 68.3949 71.4443 68.3396 71.4834 68.285 71.5623 68.1658 71.6026 68.1112 71.6374 68.0615 71.6722 68.0075 71.7175 67.9578 71.7622 67.9081 71.7808 67.8876 71.8063 67.8578 72.1937 67.4859 72.3086 67.2773 72.303 67.2574V67.2326L72.298 67.2127V67.173L72.303 67.1531V67.1326L72.3086 67.1084 72.3272 67.029 72.3477 66.9892 72.3626 66.9495 72.3825 66.9104 72.4073 66.8694 72.4315 66.8402 72.457 66.8005 72.5662 66.6614 72.5805 66.5918 72.5662 66.572 72.5563 66.5521 72.5458 66.5378 72.5364 66.5223 72.5215 66.5074 72.5116 66.4925 72.4967 66.4782 72.4762 66.4627 72.4626 66.4528 72.447 66.4379 72.4172 66.418 72.3825 66.3981 72.3427 66.3789H72.3328L72.3222 66.3739H72.2726L72.2577 66.3826 72.2434 66.3882 72.2136 66.4031 72.1838 66.423 72.1583 66.4286 72.144 66.4335H72.1037L72.0944 66.4286H72.0844L72.0695 66.423 72.0596 66.418 72.0447 66.423 72.0298 66.4286 72.005 66.4428 71.9801 66.4627 71.9652 66.4832 71.9454 66.5024 71.9255 66.5273 71.9106 66.5521 71.8957 66.572 71.8559 66.6266 71.8268 66.6763 71.8112 66.7017 71.7914 66.721 71.7715 66.7458 71.7516 66.7607 71.692 66.7905 71.6821 66.7806 71.6678 66.7756 71.6579 66.7657 71.6473 66.7607 71.6374 66.7558 71.6275 66.7514H71.6082L71.5828 66.7458 71.5536 66.7514 71.5331 66.7558 71.5076 66.7607 71.4635 66.7707 71.4393 66.7756 71.4139 66.7806 71.3897 66.7856H71.34L71.3251 66.7806 71.3145 66.7756 71.2903 66.7607 71.2748 66.7961 71.2549 66.8253 71.2307 66.8607 71.2102 66.8849 71.1904 66.9104 71.1661 66.9445 71.1214 66.9942 71.0718 67.0488 71.0519 67.0743 71.0314 67.1035 71.0122 67.1326 70.9917 67.1631 70.9718 67.1922 70.9575 67.2276 70.9178 67.2773 70.7036 67.9969 70.4161 68.4887 70.3615 68.4936H70.3068L70.2572 68.4992 70.2125 68.5085 70.1628 68.5141 70.1224 68.5234 70.0833 68.5383 70.0436 68.5483 69.9939 68.5638 69.9536 68.583 69.9144 68.5979 69.8797 68.6184 69.8399 68.6426 69.7996 68.6681 69.7654 68.6923 69.7257 68.7227 69.7108 68.7178H69.6853L69.6711 68.7122 69.6562 68.7072 69.6456 68.6973 69.6313 68.6923 69.6214 68.683 69.6115 68.6731 69.6015 68.6625 69.5916 68.6526 69.5773 68.6327 69.5413 68.5781 69.3134 67.928 69.3227 67.9032 69.3283 67.8833 69.3333 67.8535 69.3383 67.833V67.7691L69.3333 67.7492 69.3283 67.7094 69.3184 67.6647 69.3084 67.63 69.2936 67.5902 69.2836 67.5455 69.2737 67.5101 69.2637 67.476 69.2582 67.4561V67.3661L69.2637 67.3462 69.2687 67.327 69.2886 67.2872 69.1048 66.8452 68.9061 66.2889 68.8962 66.2143 68.862 66.1895 68.8223 66.1603 68.7869 66.1299 68.7422 66.1001 68.6727 66.0411 68.6087 65.9759 68.5733 65.9467 68.5392 65.9213 68.5044 65.8915 68.4641 65.8667 68.4193 65.8424 68.3796 65.8176 68.3355 65.7971 68.3101 65.7878 68.2908 65.7779 68.271 65.7729 68.2505 65.7679H68.2163L68.171 65.7729H68.1219L68.0723 65.7779H68.0021L67.9773 65.7729 67.958 65.7679 67.9375 65.7574 67.5451 66.0355 67.059 67.4518 67.0391 67.4704 67.0186 67.4859 67.005 67.5052 66.9944 67.5257 66.9646 67.5803 66.9348 67.6244 66.9199 67.6498 66.9007 67.6691 66.8851 67.6889 66.8653 67.7094 66.846 67.7287 66.8255 67.7436 66.8007 67.7591 66.7709 67.7734 66.7262 67.7392 66.7014 67.6945 66.6616 67.6051 66.6417 67.5505 66.6225 67.5008 66.5778 67.4009 66.5623 67.3462 66.5474 67.2916 66.5325 67.2326 66.5232 67.1786 66.5076 67.1233 66.4878 67.0041 66.4778 66.9495 66.4729 66.8799 66.4685 66.8253 66.458 66.7607V66.7017L66.453 66.6372 66.4487 66.572V66.3826L66.453 66.3187V66.2541L66.458 66.1945 66.4629 66.1299 66.4685 66.0653 66.4778 65.9958 66.4828 65.9368 66.4927 65.8772 67.0938 65.1067 67.0888 65.0825 67.0838 65.057 67.0788 65.0328V64.9682L67.0838 64.9235V64.8739L67.0788 64.854 67.0739 64.8292 67.0689 64.8192 67.0633 64.8093 67.059 64.7993 67.049 64.7838 67.0391 64.7739 67.0341 64.7652 67.0087 64.7397 66.9845 64.6851 67.352 64.2083 67.719 64.1785 68.171 63.1608 68.1666 63.1403 68.1617 63.1254V63.1062L68.1561 63.0857V63.0466L68.1511 63.0062V62.9373L68.1412 62.9218V62.9069L68.1362 62.8876 68.1319 62.8777 68.1219 62.8572 68.1064 62.838 68.0965 62.8231 68.0816 62.8082 68.0623 62.7926 68.0468 62.7784 68.0127 62.7529 67.9773 62.7287 67.9431 62.7039 67.9276 62.6933 67.9133 62.679 67.8978 62.6641 67.8835 62.6436 66.602 62.743 66.2344 62.9323 65.7228 63.1205 65.7086 63.1304 65.693 63.1403 65.6688 63.1658 65.6384 63.19 65.6142 63.2248 65.5943 63.2552 65.5738 63.2844 65.5397 63.344 65.5192 63.3744 65.4999 63.4042 65.4794 63.434 65.4596 63.4589 65.4403 63.4837 65.4105 63.5085 65.3807 63.5383 65.3652 63.5476 65.341 63.5576 65.3261 63.5781 65.3211 63.588 65.3155 63.5973V63.6222L65.3211 63.6321 65.3261 63.6426 65.3311 63.6569 65.341 63.6669 65.3609 63.6774 65.3807 63.6973 65.3907 63.7022 65.4012 63.7116 65.4049 63.7215 65.4105 63.7265V63.7519L65.4049 63.7612 65.4012 63.7662 65.3956 63.7712 65.3006 63.896 65.2069 64.0152 65.1671 64.0698 65.1324 64.1244 65.0877 64.1878 65.0529 64.243 65.0082 64.3026 64.9728 64.3573 64.9387 64.4119 64.9095 64.4715 64.8791 64.5311 64.8294 64.6503 64.8145 64.705 64.6363 64.8739 64.6059 64.8881 64.5761 64.9086 64.5506 64.9235 64.5264 64.9378 64.5115 64.9527 64.4916 64.9732 64.4519 65.0024 64.4171 65.0278 64.3923 65.057 64.3674 65.0924 64.3476 65.1172 64.1489 65.6531 64.1539 65.6686 64.1594 65.6785 64.1644 65.6978 64.1694 65.7083 64.1731 65.7183 64.1787 65.7282 64.1886 65.7375 64.1986 65.7474 64.2091 65.7623 64.2277 65.7729 64.2737 65.7921 64.2929 65.807 64.3078 65.8176 64.3277 65.8325 64.3376 65.8375 64.3426 65.8468 64.3476 65.8517 64.3575 65.8716 64.3625 65.8871 64.3674 65.8971V65.9312L64.3625 65.961 64.3525 65.9914 64.3426 66.0256 64.332 66.056 64.3178 66.0802 64.3029 66.1057 64.283 66.1299 64.2631 66.1554 64.2433 66.1796 64.2234 66.2001 64.2035 66.2243 64.1787 66.2441 64.1539 66.2597 64.1241 66.2789 64.0644 66.3242 63.5032 65.8822 63.384 65.7921 63.3548 65.8269 63.3244 65.8567 63.2747 65.9213 63.2505 65.9467 63.2256 65.9759 63.2151 65.9914 63.2051 66.0107 63.2008 66.0256 63.1958 66.0461 63.1859 66.0604V66.0753L63.176 66.0908V66.1448L63.1859 66.1796 63.1909 66.2143 63.2008 66.2441 63.22 66.3242 63.23 66.3584 63.2405 66.4335V66.4478L63.2455 66.4677 63.2405 66.4832V66.5024L63.2356 66.5173V66.5329L63.2256 66.5521 63.22 66.562 63.2101 66.5769 63.2008 66.5918 63.2455 66.6316zm-31.31 10.935H31.9212L31.9063 77.5617H31.8907L31.8752 77.5517 31.8665 77.5468 31.8566 77.5362 31.846 77.5263 31.8411 77.5176 31.8361 77.5021 31.8262 77.4921 31.8212 77.4716V77.4319L31.8262 77.422 31.8361 77.4133 31.8411 77.3978 31.846 77.3878 31.851 77.3773 31.8609 77.3624 31.8665 77.353 31.8752 77.3481 31.8858 77.3381 31.8957 77.3332 31.9112 77.3276 31.9212 77.3232H31.9404L31.9553 77.3276 31.9708 77.3332 31.9851 77.3431 32 77.353 32.0149 77.3481 32.0255 77.3431 32.0348 77.3381 32.0447 77.3332V77.3232L32.0497 77.3127V77.2984L32.0547 77.2835V77.2736L32.0596 77.2686 32.0646 77.263 32.0751 77.2531 32.0894 77.2487H32.1043L32.1689 77.2438 32.1795 77.2531 32.1888 77.2686 32.1937 77.2779 32.1981 77.2934 32.2037 77.3077V77.3177L32.2086 77.3276V77.3928L32.1981 77.417 32.1937 77.4375 32.1795 77.4574 32.1689 77.4816 32.149 77.512 32.1093 77.5517 32.0845 77.5716 32.0646 77.5915 32.0398 77.6113 31.9355 77.5666zm3.973-3.824L35.9135 73.7525 35.9184 73.7681 35.9234 73.7774 35.9284 73.7873 35.9333 73.8022 35.9383 73.8177V73.8419L35.9426 73.8773 35.9383 73.9065 35.9333 73.9363 35.9184 73.9816 35.9085 73.9909 35.9029 74.0009 35.893 74.0158 35.8837 74.0263 35.8737 74.0363 35.8582 74.0506 35.8483 74.0605 35.834 74.0655 35.8185 74.0804 35.8042 74.0859 35.7887 74.0909H35.7744L35.7595 74.0953H35.7396L35.7247 74.0909 35.1237 74.4976 35.0883 74.5175 35.0542 74.5317 35.0293 74.5423 34.9946 74.5522 34.9648 74.5572 34.9294 74.5622 34.8747 74.5764 34.8455 74.582 34.8164 74.592 34.7909 74.6019 34.7617 74.6118 34.7363 74.6218 34.7108 74.636 34.6866 74.6565 34.6562 74.6863 34.6065 74.731 34.3538 74.6218V74.5622L34.3588 74.5317 34.3637 74.5075 34.3737 74.4777 34.3842 74.4529 34.3985 74.4281 34.4084 74.4032 34.4339 74.3486 34.4631 74.3045 34.473 74.279 34.4836 74.2536 34.4935 74.2244 34.4978 74.1989 34.9946 73.6234 35.2777 73.3806 35.531 73.1316 35.8737 72.9783 35.888 72.9876 35.8979 72.9982 35.9085 73.0081 35.9135 73.018 35.9234 73.0273 35.9284 73.0373V73.0478L35.9333 73.0571 35.9383 73.077V73.2012L35.9426 73.2217 35.9476 73.236 35.9526 73.2459 35.9582 73.2558 35.9625 73.2658 35.9675 73.2763 35.9731 73.2862 35.983 73.2956 35.9973 73.3005 36.0122 73.3105 36.0277 73.316 36.0172 73.3409 35.9085 73.7426zM35.8979 72.2928 35.888 72.3127 35.8787 72.327 35.8582 72.3425 35.8433 72.3574 35.829 72.3723 35.8092 72.3866 35.7744 72.412 35.734 72.4412 35.7148 72.4518 35.6999 72.4667 35.6794 72.4816 35.6651 72.5008 35.6502 72.5163 35.6403 72.5455 35.0095 73.0273 34.6065 73.4595 34.324 73.6979 34.3091 73.7084 34.3041 73.7227 34.2942 73.7376 34.2892 73.7525 34.2799 73.7873 34.275 73.8177 34.265 73.8469 34.2495 73.8916 34.2396 73.9065 34.2346 73.9171 34.2253 73.932 33.5547 74.5764 33.5342 74.587 33.52 74.5963 33.5001 74.6069 33.4846 74.6118 33.4504 74.6218 33.4107 74.6311 33.366 74.6416 33.3312 74.6565 33.3113 74.6615 33.2964 74.6714 33.2759 74.682 33.2617 74.6957 32.5116 74.5522 31.5834 74.3933 31.5679 74.433 31.5486 74.4672 31.5083 74.5317 31.494 74.5622 31.4791 74.5963 31.4735 74.6168 31.4685 74.6311 31.4636 74.6516 31.4586 74.6714 31.7765 75.2029 32.0801 75.3364 32.1043 75.3221 32.1242 75.3072 32.154 75.2967 32.1795 75.2874 32.2235 75.2718 32.2682 75.2576 32.3179 75.2427 32.3726 75.2271 32.4322 75.2029 32.4669 75.1924 32.4967 75.1781 32.914 75.1483 32.9338 75.1582 32.9587 75.1632 32.9835 75.1725 33.0083 75.1824 33.0282 75.1924 33.0381 75.2029 33.0524 75.2079 33.058 75.2172 33.0673 75.2271 33.0828 75.2377 33.0878 75.2476 33.0928 75.2625 33.0978 75.2768V75.2967L33.1027 75.3172 33.0978 75.3265V75.3414L33.0928 75.3569V75.3668L33.0828 75.3768 33.0779 75.391 33.0624 75.401 33.0524 75.4115 33.0487 75.4215 33.0332 75.4314 33.0127 75.4457 32.9835 75.4656 32.9537 75.4811 32.9239 75.4904 32.8935 75.5053 32.8388 75.5357 32.8097 75.55 32.7799 75.5605 32.6954 75.6195 32.6159 75.6841 32.4769 75.794 32.3378 75.8983 32.2235 76.0026 32.1093 76.0964 32.005 76.1814 31.8169 76.3497 31.7219 76.4341 31.6275 76.5086 31.5381 76.5881 31.4294 76.667 31.3748 76.7073 31.3195 76.7471 31.2705 76.7868 31.2003 76.8216 31.1407 76.8719 31.0712 76.911 31.0023 76.9557 30.9377 76.9954 30.893 76.9898 30.8526 76.9849H30.8185L30.7837 76.9805 30.7483 76.9849H30.7191L30.6893 76.9898 30.6589 76.9954 30.6297 77.0047 30.5993 77.0103 30.5701 77.0202 30.5403 77.0302 30.4851 77.0501 30.4304 77.0699 30.4211 77.0941 30.4161 77.1146 30.4062 77.1295 30.4012 77.1488 30.3913 77.1643 30.3758 77.204 30.3565 77.2338 30.3466 77.2487 30.3416 77.263 30.3317 77.2835 30.3267 77.3034 30.3211 77.3177V77.3624L30.3267 77.3878 30.2522 77.8988V77.9193L30.2473 77.9342 30.2423 77.9485 30.2317 77.9634 30.2175 77.9988 30.1976 78.0279 30.1827 78.0534 30.1628 78.0882 30.1572 78.1031 30.1529 78.1223 30.1479 78.1378 30.143 78.1577 30.133 78.172 30.1231 78.1925 30.1181 78.2124 30.1076 78.2266V78.2571L30.1131 78.262V78.2763L30.1231 78.2862 30.1274 78.2962 30.143 78.3067 30.1777 78.3309 30.2075 78.3458 30.2423 78.3713 30.2771 78.3905 30.3174 78.4054 30.3516 78.4303 30.4161 78.4607 30.5453 78.5197 30.6099 78.5495 30.639 78.565 30.6695 78.5799 30.6937 78.5594 30.7191 78.5396 30.7688 78.5048 30.8079 78.47 30.8483 78.4352 30.888 78.3955 30.9377 78.3607 30.9619 78.3458 30.9874 78.3309 31.0072 78.3167 31.0364 78.2962 31.0619 78.2813 31.0811 78.262 31.1016 78.2465 31.1258 78.2316 31.1457 78.2167 31.1711 78.2074 31.1954 78.1925 31.2258 78.1819 31.25 78.172 31.2804 78.1627 31.3046 78.1577 31.3251 78.1478 31.3543 78.1428 31.3798 78.1378H31.4089L31.4394 78.1323H31.4685L31.494 78.1273H31.5281L31.558 78.1323H31.5884L31.6176 78.1378 31.6424 78.1428 31.6722 78.1478 31.7076 78.1527 31.7368 78.1577 31.7666 78.167 31.7964 78.172 31.8262 78.1819 31.8609 78.1968 31.8907 78.2074 31.9212 78.2217 31.8709 78.3067 31.8169 78.3856 31.7219 78.565 31.6772 78.6538 31.638 78.7382 31.602 78.8227 31.5679 78.9077 31.5337 78.9866 31.4977 79.0717 31.4394 79.2256 31.3891 79.3691 31.3394 79.4988 31.3301 79.5479 31.3152 79.5876 31.3102 79.6323 31.3046 79.677 31.2997 79.7118 31.2947 79.7515V79.7813L31.2997 79.8161V79.8403L31.3102 79.8707V79.8956L31.3195 79.9105 31.3301 79.9353 31.3444 79.9552 31.3543 79.9751 31.3692 79.9943 31.3891 80.0098 31.4089 80.0198 31.4238 80.0347 31.4487 80.044 31.4685 80.0545 31.494 80.0645 31.5182 80.0744 31.5486 80.0794 31.602 80.0936 31.6529 80.1042 31.7119 80.1135 31.7765 80.1241 31.8262 80.0247 31.8858 79.9154 31.9305 79.8217 31.9795 79.7211 32.0304 79.6125 32.0801 79.5175 32.1242 79.4138 32.1739 79.3045 32.2186 79.2101 32.2533 79.1058 32.2931 78.9965 32.3328 78.8972 32.4123 78.6786 32.457 78.5743 32.4918 78.465 32.5116 78.411 32.6308 78.0578 32.6656 78.0385 32.7004 78.0131 32.7296 77.9938 32.7892 77.9634 32.8146 77.9534 32.8388 77.9441 32.8643 77.9392 32.8742 77.9342 32.8935 77.9292H32.9431L32.9587 77.9342 32.9686 77.9392 32.9835 77.9441 32.9934 77.9485 33.0028 77.9534 33.0232 77.969 33.0431 77.9888 33.0624 78.0031 33.0828 78.023 33.1027 78.0385H33.112L33.1276 78.0435 33.1474 78.0534 33.2114 78.1124 33.2269 78.1527 33.207 78.2266 33.1816 78.2962 33.1667 78.3607 33.1425 78.4303 33.117 78.4949 33.0928 78.565 33.0624 78.624 33.0332 78.6842 32.9736 78.8177 32.909 78.9524 32.8494 79.0959 32.7755 79.2499 34.1452 79.2399 34.1607 79.2443H34.175L34.1899 79.2499 34.2104 79.2548 34.2346 79.2648 34.265 79.2797 34.324 79.3045 34.3488 79.3194 34.3793 79.3343 34.3842 79.3641V79.4187L34.3793 79.4436 34.3737 79.4734 34.3637 79.4988 34.3538 79.523 34.3439 79.5479 34.3346 79.5671 34.319 79.5876 34.2296 79.7366 34.2048 79.7813 34.1949 79.8062 34.1849 79.8254 34.175 79.8509 34.1706 79.8757 34.1657 79.8999 34.1607 79.9154V79.9397L34.1657 79.9651 34.1706 79.9999 34.18 80.0247 34.1899 80.0489 34.2048 80.0744 34.2253 80.1042 34.2445 80.129 34.2346 80.1483 34.2253 80.1688V80.2029L34.2296 80.2085 34.2346 80.2178 34.2445 80.2284 34.2594 80.2383 34.2843 80.2575 34.319 80.283 34.3346 80.2929 34.3488 80.3072 34.3637 80.3172 34.3737 80.3327 34.3637 80.3575 34.3588 80.3867 34.3488 80.4122 34.3439 80.4364 34.3346 80.4562 34.3091 80.5065 34.2892 80.5512 34.2396 80.645 34.2147 80.6947 34.1949 80.7394 34.2104 80.7648 34.2253 80.789 34.2396 80.8089 34.2495 80.8294 34.2545 80.8486 34.265 80.8691 34.27 80.894V80.9877L34.265 81.0126 34.2545 81.0672 34.2445 81.1218V81.1523L34.2495 81.1665 34.2545 81.1864 34.27 81.2212 34.2892 81.2609 34.2992 81.2808 34.3041 81.3006 34.3091 81.3211 34.319 81.3453 34.324 81.3708V81.4254L34.3091 81.4497 34.5674 81.5639 34.6065 81.5297 34.6469 81.4894 34.6667 81.4745 34.6816 81.4652 34.7015 81.4497H34.7214L34.7313 81.4391 34.7512 81.4298 34.771 81.4254 34.7909 81.4205H34.8704L34.8853 81.395 34.9002 81.3708 34.9151 81.3453 34.9399 81.3211 34.9753 81.2758 35.0095 81.2261 35.0244 81.1963 35.0337 81.1715 35.0492 81.1417 35.0641 81.1169 35.0796 81.0821 35.0883 81.0479 35.0982 81.0076 35.1038 80.9678 35.1138 80.9281 35.1187 80.9033V80.8294L35.1138 80.789 35.1088 80.7344 35.1038 80.6847 35.0939 80.6301 35.0796 80.5711 35.138 80.4122 35.1976 80.2433 35.2578 80.0843 35.2926 80.0042 35.3224 79.9204 35.3472 79.8459 35.4168 79.687 35.4565 79.6025 35.4913 79.533 35.536 79.4529 35.5856 79.379 35.6353 79.2995 35.7396 79.3194 35.7744 79.3436 35.7986 79.374 35.8433 79.3945 35.8582 79.3982 35.8787 79.4038 35.888 79.4088H35.893L35.8979 79.4138 35.9085 79.4237 35.9135 79.4343 35.9184 79.4529 35.9284 79.5175 35.9476 79.6168 36.0569 80.2675 36.1612 80.5959 36.4598 80.8089 36.5294 80.8635H36.5387L36.5437 80.8691 36.5486 80.8741 36.5542 80.8784 36.5586 80.894 36.5635 80.9132 36.5685 80.9337V81.0479L36.5741 81.0622 36.584 81.092 36.5884 81.0976V81.1026L36.5933 81.1075 36.6033 81.1119 36.6287 81.1169 36.6529 81.1268 36.6784 81.1318 36.7026 81.1417 36.7473 81.1622 36.7926 81.1864 36.8473 81.2063 36.8715 81.2212 36.897 81.2311 36.9162 81.2361 36.9659 81.246 36.9957 81.251 37.0205 81.2609 37.0304 81.2361 37.0602 81.1963 37.0851 81.1622 37.1149 81.1318 37.1745 81.0126 37.1894 80.9734 37.2043 80.9281 37.2285 80.8393 37.2589 80.7648 37.2745 80.7251 37.2931 80.6847 37.3086 80.645 37.3334 80.6108 37.3136 80.5661 37.3732 80.5065 37.3483 80.486 37.3235 80.4618 37.3036 80.442 37.2887 80.4215 37.2794 80.4022 37.2639 80.3867 37.2589 80.3668 37.249 80.3476 37.2341 80.3122 37.2148 80.2675 37.2093 80.2433 37.1944 80.2178 37.1795 80.1979 37.1596 80.1737V80.0986L37.1546 80.0645 37.1447 80.0347 37.1348 80.0042 37.1248 79.9751 37.1149 79.9397 37.1 79.9154 37.0851 79.8956 37.0702 79.8707 37.0354 79.8161 37.0062 79.7615 36.9659 79.6969 36.946 79.6218 36.9361 79.5826 36.9162 79.523 36.9056 79.4988 36.897 79.4634 36.8765 79.3542 36.8417 79.2648 36.8119 79.1853 36.7771 79.1058 36.7523 79.0313 36.7231 78.9618 36.6883 78.8922 36.6678 78.8525 36.648 78.8128 36.6231 78.768 36.5983 78.7184 35.983 78.3713 36.0625 78.2024 36.137 78.023 36.2258 77.8491 36.2655 77.7548 36.3059 77.6709 36.35 77.5809 36.3947 77.4971 36.4443 77.4077 36.499 77.3177 36.5542 77.2289 36.6033 77.1345 36.6585 77.0501 36.7175 76.9557 36.8715 76.8259 36.8765 76.8172 36.8814 76.8067 36.892 76.7967 36.897 76.7918V76.7868L36.9056 76.7769 36.9162 76.7713 36.941 76.762 36.9808 76.752H37.1348L37.1596 76.7471 37.1745 76.7371 37.2093 76.7471 37.2341 76.752 37.2639 76.757 37.2887 76.762H37.3192L37.3434 76.7675H37.403L37.4725 76.762H37.6414L37.7649 76.757 38.1729 76.6875 38.3219 76.4739 38.4957 76.0672 38.5057 76.0417 38.4603 75.6593 38.4256 75.5947 38.3964 75.545 38.3368 75.4358 38.3113 75.3768 38.2921 75.3172 38.2666 75.2427 38.2468 75.1781 38.2325 75.1582 38.2225 75.1334 38.212 75.1135 38.207 75.0936 38.2021 75.0682V74.9943L38.207 74.9738 38.212 74.949 38.2176 74.9297 38.2275 74.9043 38.2325 74.8801 38.2424 74.8552 38.2623 74.8049 38.2871 74.7559 38.3113 74.7062 38.3709 74.6069 38.3964 74.5622 38.4206 74.5125 38.4411 74.4634 38.4461 74.443 38.451 74.4175 38.5299 74.1797 38.4802 74.135 38.4461 74.0953 38.4312 74.0804 38.4107 74.0605 38.3964 74.0506 38.3765 74.04 38.356 74.0307 38.3269 74.0208 38.302 74.0158 38.2722 74.0108 38.2374 74.0059 38.1977 74.0009 38.1033 73.9959 38.1077 73.986V73.9413L38.1033 73.922 38.0977 73.8916 38.0878 73.8618 38.0332 73.6929 37.6414 73.9816 36.8864 75.2526 36.1916 76.1013 36.0569 76.1907 35.9582 76.2106 35.5856 76.1659 35.2926 76.1268 35.074 76.0914 34.9107 76.0672 34.8505 76.0573 34.7959 76.0467 34.7568 76.0368 34.7214 76.0268 34.6922 76.0175 34.6618 76.007 34.6028 75.9821 34.5972 76.007V76.0268L34.5928 76.0417V76.1113L34.5972 76.1268 34.6028 76.1411 34.6065 76.151 34.6171 76.1765 34.632 76.1957 34.6469 76.2156 34.6866 76.2802 34.7015 76.3 34.7065 76.3149 34.7164 76.3348V76.3901L34.7065 76.4242 34.7015 76.4391 34.6922 76.4639 34.6767 76.4888 34.6469 76.5434 34.632 76.5782 34.6121 76.603 34.6469 76.6328 34.7065 76.6726 34.7313 76.6924 34.7617 76.7073 34.7959 76.7173 34.8251 76.7272 34.8611 76.7315 34.8952 76.7421 34.9399 76.7471H34.9753L35.015 76.752 35.0883 76.757H35.1684L35.4168 76.7675 35.4366 76.7769 35.4962 76.7967 35.5409 76.8067 35.5707 76.8172 35.5906 76.8259 35.6105 76.8358 35.6248 76.8464 35.6297 76.8514 35.6353 76.8563 35.6403 76.8719 35.6452 76.8762V76.906L35.6353 76.9259 35.6297 76.9352 35.6198 76.9457 35.6055 76.9606 35.5906 76.9755 35.5707 76.9898 35.5459 77.0047 35.5254 77.0153 35.5012 77.0252 35.4813 77.0351 35.4565 77.0445 35.4317 77.0501 35.4062 77.06 35.382 77.065H35.3565L35.3373 77.0699H35.3125L35.2882 77.065H35.2677L34.0756 77.5176 33.3256 77.5617 33.3113 77.5567H33.2964L33.2859 77.5517 33.2815 77.5567H33.2759L33.271 77.5617 33.2617 77.5716 33.2517 77.5809 33.2468 77.5915 33.2362 77.6064 33.2213 77.6356 33.2114 77.6461 33.2021 77.661 33.1921 77.6709 33.1816 77.6803 33.1716 77.6902 33.1617 77.6958H33.1524L33.1474 77.6852 33.1425 77.6759 33.1375 77.6709 33.1325 77.661 33.1226 77.656 33.117 77.6505 33.0978 77.6405 33.0779 77.6356 33.0524 77.6306 33.0332 77.6262H33.0083L32.963 77.6213 32.9431 77.6163 32.9189 77.6113 32.8984 77.6064 32.8792 77.5964 32.8693 77.5915 32.8643 77.5859 32.8544 77.5759 32.8494 77.5716V77.5517L32.8544 77.5362 32.8643 77.5176 32.8693 77.5021 32.8885 77.4574 32.909 77.422 32.9189 77.4077 32.9239 77.3928 32.9338 77.3729V77.353L32.9388 77.3332 32.9338 77.3127V77.3034L32.9289 77.2934V77.2835L32.9239 77.2736 33.117 76.8216 33.2114 76.5987 33.2617 76.4838 33.3113 76.3696 33.366 76.2553 33.425 76.1411 33.4796 76.0219 33.5342 75.9033 33.5889 75.794 33.6541 75.6841 33.7186 75.5655 33.7832 75.4612 33.8323 75.3314 33.8378 75.3072 33.8428 75.2917 33.8478 75.2768 33.8527 75.2625 33.8621 75.2476 33.867 75.2427H33.872L33.8776 75.2321 33.8974 75.2222 33.9117 75.2172 33.9366 75.2079 33.9862 75.198 34.0117 75.2029H34.0309L34.0465 75.2079 34.0663 75.2129 34.0806 75.2222 34.1061 75.2427 34.1402 75.2526 34.1551 75.2625 34.175 75.2718 34.2147 75.2818 34.3793 75.2526 34.5326 75.2321 34.6922 75.2029 34.7661 75.188 34.8455 75.1675 34.9201 75.1532 35.0045 75.1334 35.074 75.1135 35.1479 75.0881 35.228 75.0632 35.3019 75.039 35.3714 75.0092 35.4466 74.9738 35.9731 74.7757 36.3798 74.3132 36.5635 73.9065 36.5741 73.8817 36.6132 73.3601 36.5685 72.9727H36.5586L36.5542 72.9634 36.5437 72.9584 36.5387 72.9534 36.5337 72.9435 36.5244 72.933 36.5145 72.9137 36.5095 72.8938 36.499 72.8684 36.494 72.8442 36.4841 72.8138 36.4791 72.7591 36.4748 72.7399 36.4698 72.72 36.4598 72.6952 36.4543 72.6753 36.4443 72.6598 36.4394 72.6554 36.4344 72.6455H36.4245L36.4201 72.6356 36.4145 72.6306 36.4102 72.6207V72.6157L36.4052 72.6051V72.5859L36.4102 72.5654 36.4145 72.5511 36.4294 72.5263 36.3847 72.4716 36.3555 72.4617 36.3251 72.4518 36.2959 72.4412 36.2705 72.4319 36.2109 72.3971 36.1469 72.3673 36.1165 72.3524 36.0873 72.3369 36.0569 72.3226 36.0227 72.3127 35.9929 72.3028 35.9625 72.2978 35.9333 72.2928H35.8979zM17.9717 67.6548 18.0661 67.7541 18.086 67.7833 18.1052 67.8088 18.1307 67.838 18.1505 67.8734 18.1853 67.8976 18.2108 67.928 18.2598 67.9826 18.3151 68.0373 18.3691 68.0869 18.4784 68.1863 18.533 68.231 18.5777 68.2807 18.597 68.3005 18.6174 68.3247 18.6373 68.3502 18.6516 68.3694 18.6671 68.3949 18.682 68.4148 18.6919 68.429 18.7013 68.4539 18.7112 68.4737V68.4992L18.7168 68.5234V68.5433L18.7267 68.5638 18.7317 68.588 18.7367 68.6079V68.6681L18.7317 68.6867 18.7267 68.7022 18.7211 68.7227 18.7112 68.737 18.7062 68.7519 18.6963 68.7724 18.682 68.7873 18.6715 68.8115 18.6417 68.8419 18.6125 68.8761 18.5827 68.9059 18.5479 68.9307 18.5131 68.9605 18.4436 69.0096 18.4088 69.035 18.3834 69.0555 17.5595 69.1393 17.5445 69.1344 17.5346 69.1294H17.5191L17.5104 69.1244 17.4949 69.1195H17.4148L17.3806 69.1244 17.3061 69.1493 17.2918 69.1598 17.2813 69.1648 17.2664 69.1741 17.2565 69.184 17.2422 69.194 17.2316 69.2089 17.2217 69.2182 17.2167 69.2337V69.2437L17.2118 69.2586V69.2735L17.2167 69.2884 17.2217 69.3082 17.2267 69.3231 17.2366 69.343 17.2714 69.3827 17.3061 69.433 17.3409 69.4771 17.3707 69.5218 17.4508 69.6211 17.5346 69.7155 17.719 69.9341 17.8128 70.0434 17.9121 70.1626 17.719 70.3761 17.3906 70.5196 17.3757 70.5301H17.3657L17.3558 70.5351H17.3359L17.321 70.5245 17.3018 70.5146 17.2763 70.5003 17.2565 70.4904 17.2267 70.4854 17.2018 70.4749 17.172 70.4699 17.1571 70.5301 17.1416 70.5897 17.1323 70.6438 17.123 70.704 17.1174 70.7586V70.8033L17.123 70.8232V70.8424L17.1273 70.8629 17.1323 70.8778 17.1174 70.8871 17.0975 70.8971 17.0876 70.9076 17.0733 70.9225 17.0478 70.9467 17.0336 70.9821 17.0187 70.9964 17.0081 71.0063 16.9932 71.0219 16.9789 71.0318 16.9584 71.0368 16.9435 71.0461 16.9144 71.051 16.8889 71.056l-.6203-.7196L16.2587 70.3314 16.2481 70.3265 16.2432 70.3215 16.2382 70.3265H16.2332L16.2239 70.3314 16.219 70.3414 16.2041 70.3612 16.1885 70.3811 16.1786 70.3911 16.1643 70.4004 16.1544 70.4053 16.1389 70.4103H16.1097L15.7713 69.7745 15.7421 69.7304 15.7067 69.6857 15.667 69.6553 15.6328 69.6162 15.5583 69.5373 15.4838 69.4622 15.454 69.4225 15.4193 69.3827 15.3795 69.343 15.3448 69.3033 15.3149 69.2641 15.2851 69.2182 15.2553 69.1741 15.2355 69.1244 15.215 69.0996 15.2951 69.0648 15.5534 68.6283 15.965 68.4787 15.9954 68.5042 16.0246 68.5191 16.055 68.5334 16.0799 68.5483 16.1047 68.5582 16.124 68.5687 16.1445 68.5737 16.1693 68.5781 16.1885 68.583 16.214 68.588H16.2332L16.2537 68.593 16.2786 68.588H16.3425L16.3829 68.5781 16.4121 68.5737 16.4921 68.5582 16.5269 68.5483 16.566 68.5433H16.6561L16.9088 68.6283 16.9386 68.6575 16.9584 68.678 16.9789 68.6923 16.9982 68.7072 17.0236 68.7178 17.0373 68.7271H17.0832L17.1074 68.7327 17.1323 68.7271H17.1522L17.1776 68.7227 17.2018 68.7178 17.2217 68.7072 17.2515 68.6973 17.2763 68.6867 17.321 68.6625 17.3601 68.6327 17.4402 68.583 17.48 68.5638 17.4949 68.5532 17.5154 68.5483 17.5296 68.5433 17.5445 68.5383H17.5744L17.6042 68.5284 17.6234 68.5191 17.6389 68.5141 17.6538 68.5042 17.6737 68.4936 17.6886 68.4787 17.7085 68.4644 17.7283 68.4495 17.7482 68.434 17.7681 68.4148 17.7873 68.3949 17.8028 68.3744 17.8227 68.3452 17.842 68.3148 17.8575 68.2807 17.8475 68.2353 17.8519 68.2155V68.1559L17.8475 68.1416 17.842 68.1217 17.837 68.1062 17.8326 68.0919 17.8277 68.077 17.8177 68.0615 17.8078 68.0466 17.7836 68.0124 17.7581 67.987 17.7432 67.9727 17.7234 67.9578 17.7085 67.9423 17.6886 67.933 17.6693 67.9181 17.6333 67.8976 17.5893 67.8734 17.5346 67.8479 17.48 67.828 17.4253 67.8138 17.3657 67.7989 17.3465 67.7933 17.331 67.7883 17.2918 67.7833 17.2515 67.7734 17.2018 67.7691H17.1571L17.1124 67.7641 17.0236 67.7691 16.9193 67.7641h-.1006L16.7653 67.7591 16.72 67.7541 16.6654 67.7436 16.6058 67.7287H16.5468L16.4971 67.7237 16.4518 67.7144 16.417 67.7045 16.3624 67.6889 16.3375 67.6846 16.3028 67.679 16.2879 67.674 16.2736 67.6691 16.2587 67.6598 16.2432 67.6548 16.2332 67.6449 16.219 67.6349 16.1985 67.6144 16.1786 67.5952 16.1594 67.5803 16.1445 67.5648 16.1289 67.5598 16.1097 67.5406H16.1047L16.0892 67.535 16.0799 67.5306H16.0352L16.0153 67.535 15.9855 67.5406 15.9358 67.5598 15.8713 67.5747 15.8365 67.5853 15.8017 67.5952 15.762 67.6002 15.7123 67.6051H15.5975L15.5832 67.6101 15.5633 67.6144 15.5484 67.6244 15.5341 67.6349 15.5136 67.6449 15.4981 67.6548 15.4689 67.6846 15.4286 67.7188 15.3895 67.7541 15.3497 67.7933 15.31 67.838 15.2653 67.8876 15.2255 67.9373 15.1858 67.9919 15.151 68.0466 15.0616 68.1509 14.9822 68.2651 14.7189 68.4539 14.704 68.4737 14.6841 68.4936 14.6494 68.5334 14.6152 68.5687 14.5798 68.6079 14.5606 68.6234 14.545 68.6377 14.5252 68.6575 14.5059 68.6681 14.4805 68.683 14.4563 68.6923 14.4258 68.7022 14.3967 68.7072 14.0235 68.5687 14.0092 68.5582 13.9987 68.5483 13.9838 68.5383 13.9745 68.5284 13.954 68.5085 13.9341 68.4787 13.9049 68.429 13.8844 68.4098 13.8701 68.3843 13.8652 68.3645V68.3502L13.8701 68.3297V68.3055L13.8795 68.2651 13.8894 68.226 13.8993 68.1807 13.9049 68.1366 13.9099 68.1161V68.0615L13.9291 68.0416 13.949 68.0273 13.9745 68.0075 14.0036 67.987 14.0291 67.9621 14.0533 67.9373 14.0788 67.9131 14.103 67.8833 14.1235 67.8535 14.1477 67.8237 14.1626 67.7933 14.1781 67.7641 14.188 67.7343V67.7144L14.193 67.6995V67.6144L14.188 67.6002 14.2123 67.5803 14.2377 67.5598 14.2619 67.5306 14.2874 67.5101 14.2973 67.4959 14.3066 67.4859 14.3215 67.4704 14.3265 67.4561 14.3364 67.4412 14.342 67.4213 14.3464 67.4009 14.352 67.3816 14.3464 67.3617V67.3419L14.342 67.327 14.3321 67.3121 14.3215 67.2966 14.3116 67.2823 14.2973 67.2674 14.2818 67.2574 14.252 67.2227 14.2278 67.1978 14.2123 67.1829 14.2023 67.173 14.188 67.1581 14.1781 67.1382 14.2023 67.083 14.5059 66.8154 14.545 66.8203 14.5606 66.8005 14.5699 66.8253 14.5749 66.8352 14.5848 66.8452 14.5898 66.8557 14.5997 66.8607H14.6053L14.6196 66.865H14.6649L14.6941 66.8557 14.709 66.8501 14.7239 66.8452H14.7586L14.7791 66.8501H14.7841L14.7934 66.8557 14.8033 66.865H14.8133L14.8282 66.8744 14.8431 66.8799 14.858 66.8849 14.8629 66.8899 14.8927 66.8948h.1242L15.0914 66.8849 15.1566 66.8799 15.1858 66.8744H15.2504L15.2802 66.8799 15.305 66.8899 15.3243 66.8948 15.3497 66.8998H15.5087L15.5341 66.9048H15.5782L15.6024 66.9104 15.6229 66.9147 15.6422 66.9246 15.8862 66.716 15.906 66.6962 15.9855 66.6266 16.0246 66.5875 16.065 66.5571 16.0997 66.5223 16.1289 66.4869 16.1643 66.4478 16.1935 66.4087 16.209 66.418 16.219 66.4335 16.2332 66.4379 16.2432 66.4478 16.2587 66.4528 16.2736 66.4577 16.2879 66.4627H16.2978L16.3183 66.4677H16.3624L16.417 66.4577 16.4673 66.4478H16.5319L16.5418 66.4528H16.5518L16.5611 66.4577 16.571 66.4627 16.576 66.4733 16.5859 66.4832 16.5915 66.4925 16.6014 66.5024V66.5223L16.5965 66.5378 16.5915 66.5471 16.5816 66.5521 16.5561 66.5769 16.5418 66.5918 16.5319 66.6068 16.5213 66.6167 16.5114 66.6415 16.5015 66.6564V66.6664L16.4971 66.6763V66.7061L16.5015 66.716 16.6107 67.1233 16.6362 67.1475 16.6461 67.1581 16.6604 67.168 16.6753 67.173 16.6958 67.1829 16.72 67.1978 16.7455 67.2078 16.7796 67.2177 16.8243 67.2326 16.874 67.2525 17.0031 67.2823 17.0776 67.2966 17.2714 67.3319 17.4949 67.3568 17.9717 67.6548zm4.6778-4.2208L22.6445 63.4384V63.4433L22.6395 63.4483H22.5849L22.57 63.4433 22.5501 63.4384H22.4806L22.4707 63.4433 22.4558 63.4483H22.4452L22.4309 63.4533 22.416 63.4589 22.4011 63.4688 22.3912 63.4787 22.3763 63.493 22.3614 63.5085 22.3409 63.5284 22.3067 63.5334H22.2627L22.2366 63.5284H22.2074L22.1776 63.5129 22.1478 63.5029 22.1186 63.493 22.0832 63.4787 22.054 63.4589 22.0187 63.4384 21.9889 63.4086 21.9541 63.3744 21.9143 63.3341 21.8746 63.2894l-.3676-.4223L21.219 62.6436 19.9132 63.4589 19.8834 63.4483 19.8542 63.434 19.8288 63.4135 19.8046 63.3937 19.7791 63.3694 19.7599 63.344 19.7344 63.3148 19.7102 63.2894 19.6947 63.2602 19.6748 63.2297 19.6599 63.19 19.65 63.1608 19.64 63.136 19.6301 63.1062 19.6202 63.0758 19.6152 63.0466 19.6102 63.0367 19.6053 63.0261V63.0019L19.6102 62.9969V62.987L19.6152 62.982 19.6251 62.9665 19.64 62.9528 19.6599 62.9323V62.8876L19.2675 62.4456 19.2526 62.4406 19.2327 62.4356 19.2185 62.4307H19.2029L19.1781 62.4251H19.0837L19.0595 62.4307 19.0341 62.4356H19.0098L18.9844 62.4456 18.9602 62.4505 18.9353 62.4605 18.9099 62.4654 18.8906 62.4748 18.8652 62.4853 18.8459 62.5002 18.8254 62.5101 18.8012 62.5201 18.7814 62.535 18.7609 62.5548 18.7466 62.5697 18.7317 62.594 18.7168 62.6144 18.7013 62.6337 18.6919 62.6542 18.677 62.7287V62.7684L18.682 62.7883V62.8231L18.677 62.8522 18.6715 62.8926 18.6671 62.9373 18.6566 62.977 18.6466 63.0162 18.6373 63.0565 18.6323 63.0963V63.1857L18.6373 63.2055 18.6417 63.2297 18.6466 63.2502 18.6566 63.2701 18.6671 63.2844 18.682 63.2999 18.6963 63.3198 18.7112 63.3341 18.7317 63.3545 18.831 63.7022 19.1284 64.3722 19.2029 64.4119 19.1781 64.4473 19.1539 64.4815 19.1284 64.5162 19.0937 64.546 19.0645 64.5758 19.0291 64.6056 18.9695 64.6652 18.9006 64.7149 18.841 64.7739 18.7708 64.8292 18.7112 64.8832 18.6069 64.9732 18.5827 64.9875 18.5522 65.0024 18.5231 65.0129 18.4827 65.0229 18.4535 65.0278 18.4188 65.0378 18.3834 65.0421H18.2747L18.2399 65.0378H18.2002L18.1555 65.0278 18.1151 65.0229 18.0754 65.0129 18.0363 65.0024 17.9922 64.998 17.9562 64.9831 17.9171 64.9682 17.8773 64.9527 17.8277 64.9378 17.7873 64.9186 17.7432 64.8987 17.7035 64.8788 17.629 64.8391 17.5445 64.7944 17.4645 64.7447 17.3856 64.695 17.3757 64.6901H17.3657L17.3508 64.6851 17.3465 64.6801 17.331 64.6696 17.321 64.6553 17.3105 64.6404 17.3018 64.6255 17.2918 64.6106 17.2813 64.5907 17.2714 64.5758 17.2664 64.5566 17.2565 64.5361 17.2515 64.5212 17.2422 64.5013V64.4815L17.2118 64.4864 17.1875 64.4914H17.1174L17.0925 64.4864H17.0733L17.0578 64.4815 17.0236 64.4715 16.9882 64.461 16.9584 64.4473 16.9193 64.4368 16.9088 64.456 16.8988 64.4666 16.8839 64.4765 16.8696 64.4864 16.8392 64.5063 16.81 64.5262 16.7945 64.5361 16.7796 64.546 16.7697 64.5603 16.7548 64.5709 16.7504 64.5858 16.7399 64.6007 16.7299 64.6404 16.7399 64.6553 16.7504 64.6696 16.7697 64.6901 16.8001 64.7099 16.8243 64.7348 16.8392 64.7447 16.8498 64.7652 16.8647 64.7739 16.874 64.7894 16.879 64.8043 16.8889 64.8242V64.8639L16.879 64.8937 16.8696 64.9086 16.8591 64.9235 16.8498 64.9378 16.8343 64.9527 16.81 64.9782 16.7796 65.0024 16.7455 65.0229 16.72 65.0477 16.6902 65.0775 16.7107 65.211 16.7144 65.2706 16.72 65.3252V65.4451L16.7144 65.4792 16.7107 65.5096 16.7057 65.5438 16.6958 65.5786 16.7107 65.6686 17.6936 66.2938 17.7035 66.3187 17.7085 66.3385 17.7134 66.364 17.719 66.3882V66.4577L17.7134 66.4832 17.7035 66.5124 17.6985 66.5378 17.6886 66.5571 17.6737 66.5875 17.6588 66.6167 17.6489 66.6515 17.629 66.6813 17.6042 66.7111 17.5893 66.7756 18.0108 67.0687 18.0605 67.0488 18.1052 67.029 18.1505 67.014 18.1952 66.9991 18.2691 66.9787 18.3337 66.9594 18.3983 66.9395 18.4281 66.9296 18.4635 66.9191 18.4982 66.9048 18.533 66.8948 18.5678 66.8744 18.597 66.865 18.7466 66.9743 18.7863 66.9787 19.1142 67.3071 20.3149 67.6995 20.8961 67.6647H20.9458L21.0004 67.674 21.0408 67.679 21.0706 67.6846 21.1004 67.6945 21.1246 67.7094 21.1451 67.7188 21.1643 67.7287 21.1792 67.7436 21.1947 67.7541 21.2239 67.7784 21.2339 67.7883 21.2494 67.7933 21.2643 67.7989 21.2835 67.8038 21.304 67.8088 21.3233 67.8138H21.3978L21.4425 67.8088H21.5368L21.5567 67.8138 21.5722 67.8187 21.5865 67.8237 21.602 67.8138 21.6114 67.7989 21.6269 67.7933 21.6412 67.7784 21.6765 67.7541 21.7057 67.7343 21.7256 67.7188 21.7411 67.7094 21.7504 67.6995 21.7653 67.6846 21.7709 67.674 21.7753 67.6647V67.6393L21.7709 67.63 21.7107 67.6002 21.6716 67.5598 21.6318 67.5101 21.5865 67.476 21.5518 67.4313 21.5176 67.3866 21.4822 67.3369 21.4183 67.2475 21.358 67.1581 21.3233 67.1184 21.2537 67.0339 21.1842 66.9544 21.1451 66.9147 20.9861 66.2001V66.1796L20.9812 66.1696 20.9663 66.1554 20.9507 66.1398 20.9365 66.1249 20.9216 66.1107 20.8911 66.0802 20.8768 66.0653 20.8619 66.0511 20.852 66.0355V66.0256L20.8464 66.0206V66.0057L20.852 65.9914V65.9865L20.857 65.9759 20.8619 65.971 20.8719 65.966 20.8818 65.9561 20.8961 65.9517 20.911 65.9418 20.9265 65.9368 20.9458 65.9312H21.0103L21.0457 65.9368 21.0706 65.9467 21.1047 65.9561 21.1351 65.966 21.1693 65.9759 21.1997 65.9865 21.2289 65.9958 21.2593 66.0057H21.304L21.3189 65.9958 21.3282 65.9914 21.3438 65.9865 21.3537 65.9815 21.3686 65.971 21.4977 65.961 21.507 65.9865 21.5226 66.0157 21.5368 66.0411 21.5567 66.0604 21.5722 66.0753 21.5965 66.0908 21.6163 66.1001 21.6368 66.1107 21.6561 66.12 21.6809 66.1249 21.6958 66.1299 21.7206 66.1349 21.7411 66.1398H21.9597L21.9839 66.1448H21.9988L22.0187 66.1498 22.0435 66.1554 22.064 66.1603 22.0832 66.1696 22.0981 66.1746 22.1186 66.1895 22.1329 66.2044 22.1528 66.2193 22.1627 66.2044 22.1826 66.1845 22.1975 66.1796 22.2074 66.1746 22.2229 66.1696H22.2322L22.2422 66.1653H22.2627L22.2825 66.1696 22.3018 66.1746 22.3167 66.1845 22.3365 66.1895 22.3614 66.2001 22.3813 66.2044H22.426L22.4365 66.2001 22.4452 66.1945 22.4607 66.1895 22.4756 66.1845 22.4856 66.1746 22.5005 66.1653H22.5452L22.5501 66.1696 22.5601 66.1746V66.1845L22.57 66.1945 22.575 66.21 22.5799 66.2193 22.5849 66.2243 22.5948 66.2292H22.6296L22.7283 66.1796 22.7439 66.2001 23.4188 66.5329 23.841 66.2143 23.1505 65.4252 22.724 65.1023 22.6495 65.0179 22.6445 64.9732 22.6346 64.9285 22.6296 64.8832V64.8639L22.6246 64.8434V64.7993L22.6296 64.7789V64.7546L22.6395 64.7348 22.6445 64.7149 22.6588 64.695 22.6693 64.6801 22.714 64.6454 22.719 64.6404 22.7283 64.6354 22.7339 64.6305H22.7643L22.7737 64.6404 22.7836 64.6503 22.7935 64.6609 22.8035 64.6696 22.8227 64.6901 22.8382 64.7 22.8432 64.7099 22.8531 64.7149H22.8724L22.8773 64.7099H22.8879L22.9078 64.6851 22.932 64.6609 22.9525 64.6354 22.9816 64.6106 23.0319 64.5603 23.086 64.5162 23.2058 64.4218 23.2548 64.3821 23.3101 64.338 23.3002 64.3175V64.2921L23.2952 64.2735 23.2902 64.253V64.1691L23.2952 64.1437 23.3002 64.1189 23.3045 64.099 23.3101 64.0841 23.3194 64.0698 23.3244 64.0493 23.3349 64.0294 23.3498 64.0152 22.8929 63.7022 22.6495 63.434zM12.0572 51.0685 11.8839 49.7975 13.2195 49.623 13.3337 49.6044 13.4473 49.5839 13.6864 49.5088 13.7702 49.4697 13.8652 49.42 13.9341 49.3654 13.9987 49.3058 14.0384 49.2561 14.0632 49.1965 14.0788 49.1369 14.0837 49.0779 14.0632 49.0233 14.0341 48.9779 13.9937 48.9283 13.9447 48.8836 13.8701 48.8488 13.7758 48.819 13.6864 48.7898 13.587 48.7743 13.338 48.7643 13.2244 48.7743 13.1002 48.7842 5.5869 49.777l-.18378-1.3548L12.5383 47.4835 12.8767 47.4487 13.2195 47.4232 13.5473 47.4195 13.8652 47.4232 14.1781 47.4537 14.4755 47.4934 14.7537 47.5375 15.012 47.6027 15.2504 47.6772 15.4838 47.7715 15.6825 47.8759 15.8657 47.9795 15.9756 48.0745 16.0743 48.1695 16.1445 48.2583 16.219 48.3626 16.2686 48.4613 16.3183 48.5607 16.3475 48.67 16.3673 48.7792 16.3779 48.8836 16.3729 49.0028 16.3624 49.1127 16.3375 49.2213 16.2879 49.3461 16.2382 49.4554 16.1743 49.569 16.0942 49.6783 16.0004 49.7826 15.8862 49.8869 15.767 49.9813 15.6328 50.0806 15.4888 50.17 15.3348 50.2588 15.1709 50.3488 14.9927 50.4227 14.8182 50.5028 14.6152 50.5674 14.2222 50.6909 13.8006 50.7909 13.3784 50.9002 12.0572 51.0685zm3.4366-4.643L5.07095 46.0629 5.12 44.7075 15.5378 45.0701 15.4938 46.4255zM15.6726 43.4806 5.30812 42.3239l.15026-1.2766L13.3486 41.9265l.2384-2.1147L16.055 40.0837 15.6726 43.4806zM15.8607 38.8978 16.2332 37.5915 6.19723 34.741l-.36197 1.3063L15.8607 38.8978zM16.8591 36.4143 7.43466 31.9452l.65441-1.3908 6.48583 1.3765-5.81962-2.7667L9.30166 28.0125l9.42504 4.4648L18.0661 33.8674l-6.153-1.2175 5.4973 2.5978L16.8591 36.4143zM18.1903 25.519l-5.2248-4.9503L13.9049 19.5753l5.2186 4.9509L19.3023 24.6753 19.3967 24.7448 19.4916 24.805 19.5854 24.864 19.6847 24.9186 19.8691 24.9932 19.953 25.018 20.0418 25.0428 20.1169 25.0577H20.2659L20.3305 25.0379 20.395 25.023 20.4497 24.9932 20.549 24.928 20.6378 24.8491 20.7775 24.6455 20.8017 24.5908 20.8172 24.5262 20.8321 24.4567 20.8272 24.3779 20.8017 24.2332 20.7527 24.055 20.6682 23.8861 20.5391 23.6967 20.4 23.5235 20.2317 23.3497 15.012 18.3981 15.9607 17.4053l5.2185 4.9509L21.3978 22.5742 21.6163 22.7983 21.81 23.0367l.1938.2378L22.1726 23.5185 22.3216 23.7514 22.4607 23.9954 22.5799 24.2239 22.6544 24.4517 22.724 24.6604 22.7643 24.8696 22.7836 25.0677 22.7935 25.2812 22.7786 25.4849 22.7439 25.678 22.6892 25.8568 22.6197 26.0213 22.5408 26.1747 22.4365 26.3144 22.3216 26.438 22.1975 26.5572 22.064 26.6615 21.9193 26.7658 21.7554 26.8353 21.5822 26.9005 21.3878 26.9501 21.1892 26.9743 20.9663 26.9793 20.7725 26.9644 20.5639 26.9303 20.3547 26.8701 20.1318 26.8006 19.8884 26.7062l-.2484-.1236L19.3917 26.4429 19.1539 26.279 18.8956 26.1151 18.6516 25.922 18.4138 25.7233 18.1903 25.519zm6.2219-1.8514L25.4354 22.897 21.81 18.0169l4.8572 3.9718L27.9034 21.0698l-6.212-8.377L20.6682 13.4577l3.8334 5.1739L19.432 14.376 18.1952 15.2893l6.217 8.3783zm4.9062-4.0519L30.4757 18.9047 25.038 10.0012 23.8763 10.7066l5.4421 8.9091zm3.3472-1.6938-4.9758-9.3456L29.08 8.12368l2.8412 5.63202-1.0686-6.21752 1.3709-.45139 1.579 10.45701-1.1369.3781zm3.0635-1.2511L34.468 6.3169 38.1977 5.86427 38.4703 8.11933 36.0172 8.41735 36.2314 10.1105 38.4312 9.84725 38.6789 11.9086 36.4748 12.1712 36.7275 14.2524l2.6269-.3179L39.6276 16.1983l-3.8985.4725zm13.7011-3.7197L49.4004 13.1746 49.3805 13.4031 49.3954 13.6117 49.4258 13.7949 49.4699 13.9693 49.4997 14.0488 49.5401 14.1078 49.5997 14.2077 49.663 14.2767 49.7332 14.3363 49.8077 14.381 49.8971 14.4164 49.9716 14.4306 50.1305 14.4654 50.2944 14.476H50.3789L50.4677 14.4611 50.5527 14.4406 50.6316 14.4058 50.7216 14.3518 50.8104 14.2767 50.9004 14.1674 50.9495 14.1034 50.9942 14.0233 51.0345 13.9345 51.0637 13.8253 51.1233 13.6117 51.1438 13.4974 51.1581 13.3931 51.1631 13.1746 51.1531 13.0752 51.1438 12.9759 51.1283 12.8716 51.0991 12.8021 51.0587 12.7325 51.019 12.6729 50.9395 12.5686 50.8402 12.4742 50.7309 12.3854l-.2136-.1639L50.0715 11.9328 49.8474 11.7944 49.6338 11.6255 49.5345 11.5311 49.4258 11.4311 49.3265 11.3175 49.2364 11.2033 49.1073 11.0344 48.9986 10.855 48.8993 10.647 48.8093 10.4036 48.7795 10.2844 48.7447 10.1353 48.705 9.84229 48.6857 9.51943 48.6808 9.1916 48.6901 8.81907 48.705 8.52166 48.7497 8.22302 48.8192 7.86104 48.8993 7.53818 49.0036 7.22525l.1143-.28809L49.2464 6.67391 49.3805 6.45535 49.5295 6.24736 49.6785 6.07413 49.8424 5.92946 50.0113 5.79038 50.1945 5.69104 50.3739 5.61654 50.5527 5.5619 50.7309 5.53706 50.9104 5.52278 51.0941 5.52713 51.2624 5.547 51.4362 5.57183 51.6051 5.6215 51.7796 5.68111 51.9379 5.75127 52.1068 5.85496 52.2508 5.97417 52.4098 6.10828 52.5389 6.28709 52.6432 6.43052 52.7376 6.60499 52.8165 6.79312 52.8916 6.9918 52.9562 7.23519 53.0009 7.49348 53.0257 7.7617 53.035 8.04979 53.0207 8.33229 52.9959 8.62597 52.9258 9.20153 51.6647 9.04259 51.6995 8.78989 51.7094 8.54091 51.7045 8.42729 51.6896 8.31305 51.6697 8.20936 51.6355 8.11374 51.6002 8.04979 51.5604 7.98025 51.5163 7.91071 51.4809 7.86601 51.417 7.80081 51.3419 7.75176 51.2723 7.70706 51.2034 7.67229l-.1496-.05898L50.9147 7.58785H50.7564L50.6024 7.59778 50.4434 7.64249 50.3689 7.67788 50.2988 7.71203 50.2541 7.72693 50.2199 7.75176 50.1802 7.78715 50.1361 7.83124 50.061 7.96038 50.0014 8.1094 49.9616 8.264 49.9318 8.44219v.16888L49.9517 8.7694 49.9815 8.88861 50.0312 9.0134 50.1057 9.14193 50.1895 9.2512 50.2696 9.35055 50.3633 9.44057 50.4627 9.50949 50.5527 9.57903 50.7458 9.70383 51.1339 9.92735 51.322 10.0459 51.5107 10.1701 51.6355 10.2546 51.7492 10.344 51.8578 10.4483 51.9677 10.5731 52.0664 10.7016 52.1565 10.8506 52.2459 11.0245 52.3309 11.2176 52.375 11.3672 52.4148 11.5311 52.4495 11.69 52.4793 11.8782 52.5184 12.2457 52.5439 12.6183 52.534 13.0256 52.4936 13.4329 52.4396 13.8302 52.3701 14.232 52.2608 14.625 52.1416 14.9919 52.0025 15.3247 51.923 15.4886 51.8491 15.6327 51.769 15.7674 51.6796 15.8854 51.5902 15.9953 51.4958 16.1039 51.412 16.1983 51.3127 16.2834 51.1283 16.4318 50.965 16.5261 50.8104 16.5913 50.657 16.6404 50.5031 16.6801 50.3447 16.7 50.1895 16.7049 50.0312 16.7 49.8871 16.6801 49.7282 16.6559 49.5891 16.6162 49.4395 16.5758 49.306 16.5168 49.157 16.4373 49.0179 16.343 48.8838 16.2436 48.7497 16.1244 48.6311 15.9704 48.5013 15.7966 48.392 15.6029 48.3033 15.3694 48.2083 15.1012 48.1536 14.8131 48.1039 14.4902 48.0847 14.1674 48.0797 13.8396 48.0946 13.4919 48.1238 13.1398 48.1586 12.7822 49.4302 12.9511zm4.122 4.1909L54.8579 17.5394l4.35-9.42007L57.8972 7.56798 53.5522 17.142zm3.4062 1.9515L60.5887 11.7993l-1.2169-.606L60.395 9.15248 63.975 10.94l-1.0126 2.0359L61.7405 12.3699l-3.6297 7.3004L56.9584 19.0935zm3.8383 1.9514L61.8299 21.7956l2.463-3.3919 4.9361-4.127L68.0574 13.4273 65.2168 16.03 66.8206 12.5289 65.644 11.6745 63.2598 17.6537l-2.4631 3.3912zM74.5121 27.322 74.8803 27.0687 75.0535 26.9396 75.2075 26.8155 75.3621 26.677 75.4856 26.528 75.585 26.3988 75.675 26.2647 75.7489 26.1151 75.7986 25.9611 75.8141 25.9015V25.768L75.7986 25.7134 75.7843 25.6488 75.7588 25.5991 75.7346 25.5495 75.6992 25.5048 75.6545 25.4601 75.5999 25.4197 75.5353 25.3905 75.4707 25.3607 75.4068 25.3309 75.3317 25.311 75.1628 25.2812 74.9747 25.2763 74.771 25.2812 74.5972 25.311 74.4233 25.3458 74.0508 25.4402 73.6633 25.5644 73.2759 25.7183 72.899 25.8723 72.5215 26.0462 72.144 26.2244 71.7765 26.4237 71.4288 26.6273 71.091 26.8403 70.7787 27.0786 70.6396 27.1979 70.5055 27.327 70.3615 27.471 70.2174 27.625 70.1175 27.774 70.0386 27.9181 69.974 28.0621 69.9393 28.1913V28.3204L69.9635 28.4241 70.0187 28.5235 70.0982 28.6135 70.1926 28.6824 70.2572 28.7079 70.3118 28.7321 70.4658 28.7724 70.6247 28.7966 70.8085 28.8016 71.0122 28.7917 71.181 28.7774 71.3592 28.737 71.5436 28.7029 71.7218 28.6526 71.9205 28.5831 72.1093 28.5092 72.4762 28.3353 73.0127 29.4026 72.5712 29.5957 72.1291 29.7801 71.6871 29.9546 71.2549 30.103 71.0364 30.1576 70.8228 30.2073 70.6142 30.2421 70.4161 30.2775 70.2174 30.2961 70.0287 30.3116 69.835 30.3215 69.6562 30.3265 69.4575 30.3017 69.2544 30.2775 69.0651 30.2421 68.8962 30.1918 68.7372 30.1328 68.5783 30.0676 68.4448 29.9838 68.3101 29.9093 68.2008 29.8248 68.0816 29.7255 67.9822 29.6212 67.9084 29.5119 67.8283 29.3977 67.7736 29.2685 67.7444 29.1443 67.7295 29.0003V28.8711L67.7494 28.7321 67.7736 28.5936 67.8233 28.4446 67.8885 28.3006 67.958 28.1509 68.0369 27.9976 68.1412 27.8386 68.2455 27.6846 68.3697 27.5307 68.5044 27.3717 68.6379 27.2233 68.9409 26.9098 69.2737 26.6019 69.4972 26.4237 69.7257 26.2449 69.9635 26.0704 70.2125 25.9015 70.7234 25.5737 71.2599 25.2614 71.8559 24.9484 72.3328 24.7106l.5017-.2042L73.4703 24.258 74.0408 24.055 74.319 23.9749 74.5972 23.896 74.8753 23.8309 75.1485 23.7719 75.4068 23.7265 75.6651 23.7017 75.9482 23.6825 76.2208 23.6775 76.4642 23.6967 76.5933 23.7172 76.6976 23.7321 76.8963 23.8017 77.0602 23.8911 77.2291 23.9904 77.3576 24.0947 77.5066 24.2481 77.6314 24.412 77.7407 24.5865 77.8251 24.774 77.8599 24.8696 77.8891 24.9683 77.9146 25.0782 77.9295 25.1769 77.9344 25.2868 77.9295 25.4054 77.9195 25.5147 77.899 25.6339 77.8699 25.7482 77.8345 25.8568 77.7898 25.9661 77.7357 26.0909 77.5967 26.3287 77.4228 26.5677 77.3334 26.6919 77.2241 26.8155 76.9752 27.0644 76.702 27.3121 76.4095 27.5462 76.0923 27.7647 75.7588 27.982 75.4118 28.1863 75.0535 28.385 74.5121 27.322zM70.0628 32.6654 70.4602 33.9668 74.4531 32.73 74.93 34.2791l-3.9979 1.2318L71.34 36.8166l9.9615-3.0491L80.8985 32.4468 77.2887 33.5588 76.8112 32.0147l3.6105-1.112L80.0243 29.6013l-9.9615 3.0641zM71.5828 38.1279l10.3234-1.3752L82.0857 38.1025 71.7467 39.474 71.5828 38.1279zM72.1788 40.9834 82.5923 41.3354 82.547 42.8746l-6.4945 1.3169 6.4448.2179L82.4582 45.686 72.0248 45.3377 72.0745 43.8035 78.207 42.4679 72.1291 42.2643 72.1788 40.9834zm1.1772 7.319L71.9106 47.7765l.2881-1.4255 9.8472 3.8985L81.7777 51.585 71.181 51.3665 71.4735 49.9459 73.0077 50.016 73.356 48.3024zM75.5111 49.1127 75.3118 50.1104 78.5597 50.2495 75.5111 49.1127zM68.6329 23.0367 68.4193 22.9821 68.2362 22.8877 68.0623 22.7586 67.9276 22.6046 67.8134 22.4258 67.7444 22.2221 67.7091 22.0185 67.719 21.8006 67.7736 21.582 67.873 21.3926 67.9928 21.2244 68.1561 21.0847 68.3306 20.9754 68.5286 20.9065 68.7372 20.8767 68.9558 20.8866 69.1743 20.9363 69.3631 21.0307 69.527 21.1598 69.6711 21.3088 69.7803 21.4926 69.8492 21.6913 69.8797 21.8943 69.8697 22.1228 69.8145 22.3314 69.7257 22.5195 69.5965 22.694 69.4475 22.8281 69.2637 22.943 69.0651 23.0113 68.8564 23.0473 68.6329 23.0367z" fill="#0836bf"/></svg>