<svg id="logo" width="35vw" height="100%" viewBox="0 0 88 88" fill="none" xmlns="http://www.w3.org/2000/svg"><path fill-rule="evenodd" clip-rule="evenodd" d="M43.9992 12.7473c17.2161.0 31.2526 14.0422 31.2526 31.2526.0 17.2162-14.0422 31.2526-31.2526 31.2526-17.2162.0-31.2526-14.0422-31.2526-31.2526.0-17.2161 14.0364-31.2526 31.2526-31.2526z" fill="#fff" stroke="#fff" stroke-width=".5669" stroke-miterlimit="22.9256"/><path fill-rule="evenodd" clip-rule="evenodd" d="M44 0C68.2344.0 88 19.7656 88 44S68.2344 88 44 88C19.7656 88 0 68.2344.0 44 0 19.7656 19.7656.0 44 0zm0 12.7474C26.7839 12.7474 12.7474 26.7896 12.7474 44c0 17.2161 14.0422 31.2526 31.2526 31.2526 17.2161.0 31.2526-14.0422 31.2526-31.2526.0-17.2161-14.0365-31.2526-31.2526-31.2526z" fill="#007739"/><path fill-rule="evenodd" clip-rule="evenodd" d="M12.1342 19.3928S12.1686 19.7996 11.7733 19.9142C11.7733 19.9142 11.3665 19.4501 11.4696 18.9631 11.4696 18.9631 11.3149 18.6194 11.6071 18.3845 11.6071 18.3845 11.8019 18.2298 12.0483 18.4532L12.478 18.9345 12.8504 19.5933 13.1941 19.7423S13.8472 20.2808 13.9045 20.0574c0 0-.681800000000001-1.3521-.6989-1.8219L13.0681 17.2214l-.1318-.4755S12.3863 16.173 12.7415 15.8006C12.7415 15.8006 13.2457 15.2392 14.0477 15.8808 14.0477 15.8808 14.2884 15.9152 14.1222 16.4308 14.1222 16.4308 13.8129 17.1813 13.8644 17.3704L13.7212 17.9089s-.3896 1.4094.4526 2.0511C14.1738 19.96 14.1222 20.3782 14.8212 20.4527 14.8212 20.4527 15.3024 20.5157 15.6462 21.3121 15.6462 21.3121 16.053 21.9251 16.6774 21.4496 16.6774 21.4496 15.9556 21.0543 15.5946 20.6246c0 0-1.2317-.670300000000001-1.1286-1.312C14.466 19.3126 14.7295 18.8657 15.0733 19.1636c0 0 .847900000000001 1.3292 1.3463 1.3693C16.4196 20.5329 16.792 20.2464 16.9181 19.9256c0 0-1.3922-.910899999999998-1.6901-1.3234.0.0-1.1917-.8308-1.037-1.1287C14.191 17.4735 14.2998 16.9865 14.6035 17.1813 14.6035 17.1813 14.9988 17.4105 14.953 17.674 14.953 17.674 15.5373 18.3043 15.6977 18.0923 15.6977 18.0923 15.7951 17.3704 16.0186 17.273 16.242 17.1756 16.3566 17.2272 16.454 17.4506 16.5514 17.674 16.2363 18.0808 16.4483 18.3558 16.6602 18.6308 16.5858 18.7225 16.7576 18.8944 16.9295 19.0662 17.1931 19.2668 17.1931 19.2668S17.4108 18.7855 17.7373 18.9975C17.7373 18.9975 18.0181 19.0261 17.9149 19.8168 17.9149 19.8168 17.2847 20.7449 17.1358 21.0428L17.2618 21.1746s1.1401-.4985 2.3833-1.9422c0 0 .624500000000001-.9682.9053-1.0943C20.8368 18.0121 21.278 17.7829 21.4212 17.8918 21.5644 18.0006 21.4498 18.1037 21.3238 18.2699 21.3238 18.2699 21.3868 18.585 20.9399 19.2267c0 0-1.2833 2.5895-4.3369 3.2598C16.603 22.4865 16.8321 23.3803 16.7061 23.7412L16.454 24.423S16.0873 25.8496 16.0071 26.0558C16.0071 26.0558 15.967 23.0652 15.48 22.5095 15.48 22.5095 14.3399 22.3605 14.2139 22.5324 14.0879 22.6985 13.8243 22.9964 13.6811 22.7329 13.6811 22.7329 13.3832 22.4293 13.6582 21.9194 13.6582 21.9194 14.5347 21.7131 14.9129 21.8105 14.9129 21.8105 15.0102 21.5813 13.2629 20.2923 13.2629 20.2923 12.7931 20.3152 12.5467 19.7881L12.3977 19.5933 12.1342 19.3928z" fill="#fff"/><path fill-rule="evenodd" clip-rule="evenodd" d="M31.0069 6.9493S31.4653 6.82326 31.3564 6.14722l-.4755-.50417L30.5142 5.63159S30.096 5.8092 30.5715 6.19305C30.5715 6.19305 30.7892 7.0868 30.7721 7.42482L30.8694 8.31284S30.9038 9.18368 31.3335 9.79097c0 0 .183299999999999.87083.6417 1.01983C31.9752 10.8108 32.3648 11.3665 31.8778 11.4983 31.8778 11.4983 30.8924 11.4352 30.7319 11.9509 30.7319 11.9509 30.4226 12.1972 30.7262 12.5009 30.7262 12.5009 30.858 12.6842 31.1502 12.3519 31.1502 12.3519 33.247 12.3634 33.522 12.3691 33.797 12.3691 34.7424 12.5352 36.083 12.1342L36.7017 12.1858S38.3345 11.567 38.4434 11.2404L38.9476 10.891S39.1767 10.5415 39.0278 10.4154C38.8788 10.2951 38.5523 10.4556 38.5523 10.4556s-2.3776 1.1057-4.8641 1.2661L33.4476 11.5899S32.5997 11.7389 32.4392 11.5613C32.4392 11.5613 32.5538 10.9597 32.2215 10.5128 32.2215 10.5128 31.6028 9.73368 31.5569 9.52743 31.5168 9.32691 31.1559 8.06076 31.0872 7.71701 31.0069 7.37326 30.8694 7.16128 31.0069 6.9493zM32.72 4.63472S32.9721 3.83264 33.0179 3.68368C33.0637 3.54045 32.9205 3.29982 33.1554 3.24826 33.396 3.1967 33.6653 3.46597 33.6653 3.46597S33.7627 3.75243 33.8543 3.73524C33.946 3.71805 34.4903 3.29409 34.7137 3.90139 34.7137 3.90139 34.7194 4.38264 34.7366 4.4743 34.7538 4.56597 34.7825 5.05868 34.7825 5.05868L34.7137 5.19045S35.0174 6.64566 34.8799 6.78889C34.8799 6.78889 35.2236 6.68003 35.3325 6.65711 35.4413 6.6342 36.3809 6.70295 36.4783 6.88055 36.57 7.05243 36.5299 7.04097 36.3981 7.12691 36.2606 7.21284 36.0658 7.27586 35.9512 7.28159 35.8366 7.28732 35.5043 7.1842 35.4012 7.2243 35.2924 7.26441 35.2007 7.26441 35.2007 7.26441L35.0861 7.17274S34.6736 7.21857 34.6049 7.35034C34.5361 7.48211 34.4387 7.55659 34.4387 7.55659S34.0549 7.56232 33.9288 7.69982C33.8028 7.84305 33.4762 8.02639 33.4762 8.02639S32.9434 8.52482 32.995 8.75972C32.995 8.75972 32.7372 8.98889 32.5366 8.95451 32.5366 8.95451 32.3819 8.12378 32.4793 7.8717 32.5825 7.61961 32.6168 7.3217 32.7429 7.29878 32.7429 7.29878 33.2069 7.58524 33.3273 7.69409 33.3273 7.69409 33.7971 7.55659 33.7512 7.31597 33.7512 7.31597 33.0694 6.45659 33.058 6.02118 33.058 6.02118 32.9319 5.14461 33.1898 4.99566L33.3788 4.89826S33.3043 4.45139 33.5507 4.53732L33.7627 4.72639S33.9747 4.73784 33.9918 4.89253C34.0033 5.04149 33.8372 5.42534 33.5278 5.60868 33.5278 5.60868 34.1007 5.58576 34.1179 5.77482 34.1179 5.77482 34.158 6.15295 33.7111 6.20451c0 0 .0457999999999998.4125.1432.4125S33.9976 6.56545 33.9976 6.56545 33.9747 6.2618 34.2325 6.22743L34.2955 6.06128S34.0549 5.11024 34.1752 4.76076C34.1752 4.76076 34.2096 4.17639 33.9976 4.1993 33.7913 4.22222 33.2757 3.88993 32.9148 4.44566 32.9148 4.44566 32.7773 4.89826 32.8689 5.32222L32.7601 5.34514 32.72 4.63472zm1.564 2.05677L34.4273 6.72014 34.5762 6.97795C34.1866 7.11545 34.284 6.69149 34.284 6.69149zM35.2752 7.15555 35.2465 7.21857 35.1778 7.36753 34.9944 7.5967S34.8111 7.69409 34.8799 7.54514C34.9486 7.39618 35.2752 7.15555 35.2752 7.15555z" fill="#fff"/><path fill-rule="evenodd" clip-rule="evenodd" d="M35.4746 8.05516S35.8585 7.78016 35.4574 7.61401C35.4574 7.61401 34.7814 7.69995 34.6038 7.77443 34.4262 7.84891 33.8361 7.97495 33.5782 8.75985c0 0 .573-.12032.6188.0229099999999995C34.2486 8.92599 34.3402 9.26974 34.134 9.41297 33.9335 9.55047 33.5553 9.76818 33.5553 9.76818S33.1486 9.9286 33.4236 10.1406C33.4236 10.1406 33.6756 10.2437 33.8991 9.8312 33.8991 9.8312 34.4491 9.52183 34.5751 9.3786 34.5751 9.3786 34.4605 9.75099 34.3173 9.97443 34.1741 10.1979 33.6527 11.3838 33.5324 11.4468 33.4121 11.5098 33.9793 11.4697 34.323 11.2807 34.323 11.2807 34.621 11.063 34.6381 10.9427 34.6496 10.8223 34.8444 11.3609 34.8329 11.4984 34.8329 11.4984 35.0392 11.6645 35.2512 11.3895 35.2512 11.3895 36.3282 10.3927 36.1163 9.91714 36.1163 9.91714 35.8585 9.51037 35.4173 9.61922 35.4173 9.61922 35.297 9.49318 35.4402 9.36141 35.5892 9.23537 35.9043 8.74266 35.8012 8.5937 35.8012 8.5937 35.5548 8.51349 34.959 8.78849 34.959 8.78849 34.9762 8.14683 34.3116 8.44474 34.3116 8.44474 34.2543 8.16974 34.7012 8.09526 34.7012 8.10672 35.2397 8.10672 35.4746 8.05516zM35.4803 10.0776 35.5319 10.238S35.5434 10.3869 35.4402 10.5473C35.3371 10.702 35.1652 10.8739 34.959 10.9197 34.7585 10.9598 34.7012 10.8968 34.684 10.8052 34.6668 10.7135 34.7585 10.4213 34.9819 10.2208 35.2168 10.0145 35.4803 10.0776 35.4803 10.0776z" fill="#fff"/><path fill-rule="evenodd" clip-rule="evenodd" d="M55.5276 7.76873S53.8719 7.83748 53.7459 7.83748C53.6141 7.83748 53.1901 8.06665 53.2417 8.19842 53.299 8.33019 53.637 8.45623 53.7917 8.51925 53.9464 8.58228 53.9177 9.05207 54.3131 9.21821 54.3131 9.21821 54.3646 9.40727 54.2386 9.48175 54.1125 9.55623 52.2219 10.7823 51.987 10.8166 51.7521 10.851 51.4886 11.0344 51.4886 11.0344L51.1792 11.1661 51.4542 11.1719S51.7292 11.0859 51.8381 11.0917C51.9469 11.0974 52.1589 10.9484 52.2506 10.9484 52.3422 10.9484 53.0183 10.9713 53.1558 10.9542 53.2933 10.937 53.3792 10.8625 53.5224 10.8682 53.6657 10.8739 54.8459 10.0318 54.9547 10.0031 55.0578 9.97446 55.287 9.86561 55.4073 9.93436 55.4073 9.93436 56.1063 11.2234 56.2209 11.3094c0 0 .744799999999998 1.1057.9968 1.2432C57.4698 12.6958 57.9797 12.8505 58.3578 12.8791 58.736 12.9078 58.9537 12.776 59.0282 12.6042 59.1026 12.4323 59.0854 12.3693 59.0854 12.3693S58.6787 12.014 58.5698 11.9682C58.461 11.9224 57.6703 11.4297 57.5214 11.2521 57.3724 11.0802 56.1636 9.76248 56.0089 8.97759 56.0089 8.97759 56.9427 8.86873 57.1948 8.88019 57.4469 8.89165 57.6302 8.94894 57.6302 8.94894L57.762 8.35884S57.5443 7.76873 57.0688 7.71717C57.0688 7.71717 56.6506 7.78592 56.5302 7.67707 56.4099 7.56821 56.6047 7.13853 56.7881 6.97238 56.9657 6.80623 57.2578 6.90936 57.1948 6.69738 57.1318 6.4854 56.9886 5.81509 56.4615 5.74634 56.4615 5.74634 56.3698 5.96978 56.324 6.03853 56.2782 6.113 55.7625 7.29894 55.7625 7.29894L55.5276 7.76873z" fill="#fff"/><path fill-rule="evenodd" clip-rule="evenodd" d="M71.6896 18.9862 71.4547 18.8487 71.1454 18.3331S71.323 18.1612 71.0823 18.0581C71.0823 18.0581 69.8563 18.3045 70.0683 18.9805 70.0683 18.9805 70.4235 19.2097 70.7558 19.1066L71.8386 19.7024S72.3084 19.7139 72.1365 20.1149L72.2454 20.1894S72.5605 20.0977 72.7381 20.1894C72.9099 20.281 73.0761 20.3154 73.1735 20.4529 73.2652 20.5961 73.4313 20.8024 73.4313 20.8024S73.9068 20.9571 73.9641 21.1748L73.8667 21.5586S74.2277 21.7592 74.3709 21.6675C74.3709 21.6675 74.898 22.481 74.6631 22.6014 74.6631 22.6014 73.8266 22.2519 73.6547 22.0743 73.6547 22.0743 73.7292 21.5644 73.2422 21.2149 73.2422 21.2149 72.4172 20.5675 72.2224 20.493 72.0277 20.4185 71.8271 20.3727 71.8271 20.3727S71.4376 19.817 71.2313 20.0404C71.2313 20.0404 71.1855 20.3269 71.5292 20.5389L72.062 20.9112S72.7381 21.192 72.7495 21.3868C72.7495 21.3868 72.6579 21.5586 72.5204 21.4784 72.3829 21.3982 71.9245 21.318 72.1365 21.7305 72.1365 21.7305 72.0047 21.931 71.9303 21.8107 71.8501 21.6904 70.3777 20.1378 70.1542 20.1951 70.1542 20.1951 69.5355 20.3956 70.2115 20.9972l1.2891 1.1802S70.5667 22.9566 70.1542 22.5899C70.1542 22.5899 69.8334 22.0514 69.7188 21.8336 69.7188 21.8336 69.6558 22.2232 69.6443 22.4295 69.6329 22.6357 69.4782 22.8821 69.736 23.1456 69.9938 23.4092 70.3261 23.5696 70.8761 23.2144L71.787 22.7102S72.0047 22.8248 72.0391 23.0941C72.0391 23.0941 72.5547 23.7128 72.8355 23.2946 72.8355 23.2946 72.8469 23.0883 72.8183 22.9623 72.7954 22.8362 72.6063 22.4639 72.5146 22.3206 72.5146 22.3206 72.6235 21.8165 72.7782 21.7477 72.7782 21.7477 73.1563 22.1946 73.3912 22.1545 73.3912 22.1545 73.6261 22.1144 73.7063 22.4123 73.7063 22.4123 74.0902 23.0883 74.3422 23.3862 74.5943 23.6842 74.6287 23.7758 74.8006 23.604 74.9782 23.4321 75.2761 22.8305 75.0297 22.3607 75.0297 22.3607 74.4683 21.6274 74.6745 21.5529 74.6745 21.5529 74.8521 21.381 75.11 21.4727 75.11 21.4727 75.975 21.0258 76.1412 20.9743 76.3073 20.9227 77.0579 20.9227 77.1438 20.5217 77.2297 20.1206 77.4188 19.9659 77.1266 19.6967 77.1266 19.6967 76.6167 19.1352 76.399 19.3357 76.399 19.3357 76.2902 19.6107 76.5136 19.9545 76.5136 19.9545 76.0553 20.1378 75.9349 20.218 75.8146 20.2982 75.1042 20.8482 74.9782 20.6993 74.8521 20.5503 75.0641 20.1264 75.637 19.9831 75.637 19.9831 76.0495 20.1779 76.0495 19.9487 76.0495 19.9487 76.2271 19.5133 76.124 19.4389 76.0152 19.3644 75.6714 19.3586 75.5511 19.754 75.5511 19.754 74.8063 20.3842 74.6459 20.4014 74.6459 20.4014 73.8724 20.4987 73.7751 20.3899 73.6777 20.281 73.8782 20.1493 74.0214 20.1435 74.1646 20.1378 74.3193 20.155 74.4797 20.0461 74.6402 19.943 75.3277 19.754 75.1386 19.2441L75.8318 19.0206 76.2902 19.0149S76.548 18.6139 76.3303 18.4133L75.0985 18.78S74.9094 18.356 74.9839 18.2472C75.0584 18.1383 75.3047 18.1211 75.3047 18.1211S75.448 18.6081 75.9349 18.1154C75.9349 18.1154 76.336 17.8003 76.0037 17.468 76.0037 17.468 75.1271 17.7201 74.7719 17.9264c0 0-.825000000000003.3322-1.1687.7333C73.6032 18.6597 72.8011 19.3816 72.6808 19.4618S72.2626 19.5305 72.1365 19.1524C72.1365 19.1524 72.761 18.5165 73.1219 18.3675 73.1219 18.3675 73.8381 17.9607 73.712 17.7258 73.586 17.4909 73.5115 17.5081 73.2709 17.6685 73.0303 17.829 72.6751 18.2586 72.5547 18.3389 72.4058 18.4019 71.6896 18.9862 71.6896 18.9862zm2.7042 1.7589S74.0443 20.917 73.8954 20.7795C73.7521 20.642 73.8037 20.5503 73.8037 20.5503L74.1532 20.642 74.3938 20.7451zM74.8636 19.204C74.8407 19.6508 74.136 19.7654 74.0443 19.6795 73.9584 19.5935 73.9183 19.5305 74.136 19.33 74.3537 19.1295 74.8636 19.204 74.8636 19.204zM74.6974 18.8201C74.5256 19.0493 73.9412 19.0779 73.9412 19.0779 73.6948 19.0951 73.8094 19.4503 73.8094 19.4503L73.6032 19.668C73.1563 20.0461 72.8527 19.754 72.8527 19.754L73.3683 19.3014S73.9641 18.8831 74.1245 18.6941C74.2849 18.4993 74.6058 18.4993 74.6058 18.4993 74.5141 18.6196 74.6974 18.8201 74.6974 18.8201z" fill="#fff"/><path fill-rule="evenodd" clip-rule="evenodd" d="M33.0283 20.304c4.1766.0 7.5625 3.3859 7.5625 7.5625.0 4.1765-3.3859 7.5625-7.5625 7.5625-4.1765.0-7.5625-3.386-7.5625-7.5625.0-4.1766 3.3917-7.5625 7.5625-7.5625z" fill="#e60012"/><path fill-rule="evenodd" clip-rule="evenodd" d="M51.7629 25.7351V46.5148H34.1342v7.9979H53.6077V44.5669h13.939v14.489h-4.102V48.457H58.529V59.0445H29.2129V42.6247H47.8957V38.0643h-5.563V34.4091h5.1448V30.0893H42.3212V25.9127L51.7629 25.7351z" fill="#1d2088"/><path d="M39.7492 62.9806V67.6613h-.5959V64.3556H38.0361V63.8858C38.8153 63.9202 39.2393 63.6165 39.308 62.9749H39.7492V62.9806zm2.0338 3.5635H42.3559C42.4247 67.0483 42.6939 67.3004 43.1637 67.3004 43.771 67.3176 44.1434 66.7389 44.2809 65.5587H44.2523C44.0632 65.9025 43.708 66.0858 43.1867 66.103 42.2528 66.0514 41.7658 65.5473 41.7314 64.5962 41.783 63.5535 42.2872 63.015 43.2382 62.9806 44.2981 62.9978 44.8424 63.7196 44.8768 65.1405 44.808 66.842 44.2351 67.7071 43.158 67.7415 42.3158 67.7243 41.8518 67.329 41.783 66.5441zM43.2955 65.5816C43.8684 65.5473 44.1606 65.192 44.1778 64.516 44.1606 63.8743 43.8455 63.542 43.2382 63.5249 42.6653 63.5592 42.3617 63.9087 42.3273 64.5676 42.333 65.2665 42.6538 65.5988 43.2955 65.5816zM48.996 66.5212H48.2913V67.667H47.7184V66.5212H45.6617V65.9483l2.1312-2.9677H48.2856v3.0422H48.9903V66.5212H48.996zM47.6955 63.8915l-1.4838 2.1313h1.5067V63.8915H47.6955zm2.2172 2.6526H50.4856C50.5544 67.0483 50.8236 67.3004 51.2934 67.3004 51.9007 67.3176 52.2731 66.7389 52.4106 65.5587H52.382C52.1929 65.9025 51.8377 66.0858 51.3163 66.103 50.3825 66.0514 49.8955 65.5473 49.8611 64.5962 49.9127 63.5535 50.4169 63.015 51.3679 62.9806 52.4278 62.9978 52.9721 63.7196 53.0064 65.1405 52.9377 66.842 52.3648 67.7071 51.2877 67.7415 50.4398 67.7243 49.9814 67.329 49.9127 66.5441zM51.4195 65.5816C51.9924 65.5473 52.2846 65.192 52.3018 64.516 52.2846 63.8743 51.9695 63.542 51.3622 63.5249 50.7893 63.5592 50.4856 63.9087 50.4512 64.5676 50.457 65.2665 50.7778 65.5988 51.4195 65.5816z" fill="#1d2088"/><path fill-rule="evenodd" clip-rule="evenodd" d="M8.04309 31.2471c1.48385.0 2.68121 1.2031 2.68121 2.6869C10.7243 35.4179 9.52121 36.6153 8.04309 36.6153c-1.48386.0-2.68125-1.2031-2.68125-2.6813C5.35611 32.4502 6.55923 31.2471 8.04309 31.2471z" fill="#fff"/><path fill-rule="evenodd" clip-rule="evenodd" d="M80.4664 31.2471C81.9503 31.2471 83.1534 32.4502 83.1534 33.934 83.1534 35.4179 81.9503 36.6153 80.4664 36.6153 78.9826 36.6153 77.7852 35.4122 77.7852 33.934 77.7794 32.4502 78.9826 31.2471 80.4664 31.2471z" fill="#fff"/><path d="M4.26855 49.8956 5.9873 49.5805l3.2599-2.4521L9.49355 48.4748l-2.2401 1.5297L9.88887 50.6862l.20623 1.1459-3.90155-1.1287L4.46908 51.0128l-.20053-1.1172z" fill="#fff"/><path d="M5.87835 55.1374 5.48877 54.1005 11.2237 54.0203l.4869 1.2776-4.37131 3.6838L6.92679 57.8932 7.84346 57.1083 7.09294 55.1203 5.87835 55.1374zM8.03252 55.0687 8.58252 56.5125l1.89638-1.4954L10.4674 54.9885 8.03252 55.0687z" fill="#fff"/><path d="M10.605 65.6103 9.843 64.1379l3.025-3.9302L12.8279 60.1963l-3.95886 2.051L8.37061 61.2848 13.1602 58.8098l.7906 1.5297-2.8417 3.7641L11.1493 64.115 14.9019 62.1786 15.3946 63.1353 10.605 65.6103z" fill="#fff"/><path d="M17.6751 66.8024 16.5694 65.0894l-4.5318 2.9218L13.1433 69.7242C13.9511 70.8701 14.736 71.2253 15.5037 70.8071 16.1168 70.3888 16.2886 69.8045 16.0308 69.0425L16.0537 69.0253C16.5694 69.4321 17.0735 69.4894 17.5548 69.2029 18.311 68.6472 18.3511 67.8451 17.6751 66.8024zM15.011 69.6612C14.5985 69.9534 14.2319 69.8159 13.9168 69.2545L13.4298 68.4925 14.6272 67.719 15.1199 68.481C15.498 69.0024 15.4636 69.392 15.011 69.6612zM16.8043 68.2977C16.4605 68.5211 16.1511 68.418 15.8819 67.994L15.3949 67.2321 16.4491 66.556 16.936 67.318C17.2053 67.742 17.1652 68.0685 16.8043 68.2977z" fill="#fff"/><path d="M21.0717 69.5084 17.4478 73.5 18.3131 74.2856 21.937 70.294 21.0717 69.5084z" fill="#fff"/><path d="M21.6164 76.805 20.6367 76.2894l4.2281-3.8729L26.0794 73.0524 25.2659 78.7071 24.2346 78.1686l.1662-1.1974L22.5159 75.9858 21.6164 76.805zM23.1805 75.3155 24.5497 76.0316 24.968 73.654 24.9393 73.6425l-1.7588 1.673z" fill="#fff"/><path d="M31.5497 81.5832 30.0315 80.9129 29.9226 75.9572 29.8825 75.9744l-1.7989 4.0791L27.0981 79.6181l2.1714-4.9328L30.845 75.3785 30.994 80.0936 31.0341 80.0765l1.7073-3.8672L33.7268 76.6447 31.5497 81.5832z" fill="#fff"/><path d="M42.7571 78.7186 43.9201 78.8275 43.5935 82.1905c-.189 1.3292-1.0255 1.9422-2.5208 1.8391C39.5487 83.8462 38.8326 83.0843 38.9185 81.7436L39.2394 78.3806 40.4024 78.4952 40.1216 81.4228C39.9326 82.5973 40.2706 83.2046 41.1472 83.2504 41.9951 83.3707 42.4362 82.8379 42.4706 81.652L42.7571 78.7186z" fill="#fff"/><path d="M50.1757 84.425 48.52 84.3219 46.6981 79.7157 46.6637 79.7386 46.3945 84.1901 45.3174 84.1271 45.6439 78.7417 47.3627 78.8506 49.1387 83.2219 49.1674 83.1933 49.4252 78.9766 50.5023 79.0396 50.1757 84.425z" fill="#fff"/><path d="M54.2088 78.1723 53.0459 78.2896 53.5866 83.6537 54.7495 83.5365 54.2088 78.1723z" fill="#fff"/><path d="M58.6725 82.1622l-3.2599-4.7323L56.6272 77.1206 59.0392 80.8961 59.0678 80.8904 59.3714 76.4216 60.4715 76.1409 59.8871 81.8528 58.6725 82.1622z" fill="#fff"/><path d="M63.6396 79.7331 61.3364 74.8576l3.2657-1.5412L64.9916 74.1357 62.7744 75.1784 63.313 76.3128 65.364 75.3388 65.7536 76.1581 63.6968 77.1263 64.3099 78.4211 66.6015 77.3383 66.9854 78.1518l-3.3458 1.5813z" fill="#fff"/><path d="M67.9656 71.4081 68.8077 72.5596 69.5869 71.9925C70.0281 71.6716 70.0968 71.3107 69.7989 70.8982 69.5239 70.5201 69.1744 70.5029 68.7447 70.8352L67.9656 71.4081zM69.3348 73.293 70.6067 75.0346 69.6671 75.7221l-3.1739-4.3599L68.3551 70.0044C69.3577 69.2997 70.1369 69.3112 70.6869 70.0388 71.0822 70.6175 71.0421 71.1846 70.5666 71.7518L70.5838 71.7747C71.0421 71.5112 71.5348 71.6487 72.0619 72.1758 72.1249 72.2274 72.165 72.2675 72.188 72.3018 72.6119 72.7831 72.9442 73.0753 73.1791 73.1669L72.165 73.906C71.7984 73.5966 71.4546 73.2471 71.1395 72.8461 70.8359 72.4909 70.5609 72.3992 70.326 72.5711L69.3348 73.293z" fill="#fff"/><path d="M74.7996 65.3754 74.0433 66.1832C73.6308 65.828 73.2355 65.8509 72.8517 66.2634 72.4964 66.6988 72.4621 67.0712 72.76 67.3806 73.0178 67.6212 73.3845 67.5811 73.8714 67.266 73.923 67.2374 73.9688 67.2087 73.9918 67.1801 74.0032 67.1629 74.0433 67.1342 74.1121 67.0941 75.1605 66.3493 75.9454 66.2348 76.4725 66.7504 77.2803 67.5353 77.1829 68.492 76.1688 69.6264 75.2121 70.6462 74.3069 70.7436 73.4589 69.9186L74.2553 69.0707C74.7079 69.4946 75.1548 69.5004 75.5959 69.0879 76.06 68.5665 76.1345 68.1426 75.8251 67.8217 75.5558 67.5696 75.1376 67.6441 74.5761 68.0452 74.4959 68.1025 74.4329 68.1426 74.3928 68.154 73.3845 68.8301 72.6168 68.9275 72.0897 68.4348 71.322 67.6327 71.4022 66.6816 72.3303 65.5816 73.1725 64.7624 73.9918 64.6936 74.7996 65.3754z" fill="#fff"/><path d="M75.1738 60.8076 74.5913 61.8208 79.2649 64.5077 79.8474 63.4946 75.1738 60.8076z" fill="#fff"/><path d="M76.7247 59.5259 75.8481 59.3082l1.0485-4.2396L77.7789 55.2863 77.3893 56.8389 81.7492 57.916 81.4685 59.0504 77.1086 57.9733 76.7247 59.5259z" fill="#fff"/><path d="M82.6429 52.5308 80.9414 52.1069 76.9653 53.0178 77.2976 51.6887 79.9674 51.2074 77.8362 49.5058 78.1169 48.3772 81.2164 51.0069 82.9122 51.4251 82.6429 52.5308z" fill="#fff"/></svg>